<?xml version="1.0" encoding="utf-8"?>
<!-- Generator: Adobe Illustrator 27.5.0, SVG Export Plug-In . SVG Version: 6.00 Build 0)  -->
<svg version="1.1" id="illustration" xmlns="http://www.w3.org/2000/svg" xmlns:xlink="http://www.w3.org/1999/xlink" x="0px"
	 y="0px" viewBox="0 0 1200 800" style="enable-background:new 0 0 1200 800;" xml:space="preserve">
<g>
	<g>
		<linearGradient id="SVGID_1_" gradientUnits="userSpaceOnUse" x1="969.3456" y1="396.6196" x2="-6.3354" y2="400.3013">
			<stop  offset="0" style="stop-color:#B37CFF"/>
			<stop  offset="1" style="stop-color:#F895E7"/>
		</linearGradient>
		<path style="opacity:0.7;fill:url(#SVGID_1_);" d="M1064.944,446.955L1043.9,422.8c0,0-94.951-84.384-96.595-177.701
			c-1.643-93.317-44.152-106.623-146.339-114.324c-86.394-6.511-186.1-22.353-267.477,29.121
			c-35.713,22.589-77.678,33.642-119.97,31.467l-93.215-4.794c-44.474-2.287-88.52,10.016-125.202,35.079
			c-54.38,37.156-113.303,106.292-92.032,226.073c3.612,20.339,5.931,41.63,5.931,62.282v50.73
			c0,44.552,35.028,81.153,79.881,82.913l699.708,27.459c71.943,2.822,141.635-24.648,192.078-75.638
			c13.451-13.597,20.935-31.892,20.935-50.947C1101.602,508.689,1088.556,474.057,1064.944,446.955z"/>
		
			<linearGradient id="SVGID_00000139985837270728809730000008102849594517729459_" gradientUnits="userSpaceOnUse" x1="947.295" y1="402.2405" x2="28.9243" y2="405.7059">
			<stop  offset="0" style="stop-color:#B37CFF"/>
			<stop  offset="1" style="stop-color:#F895E7"/>
		</linearGradient>
		<path style="opacity:0.4;fill:url(#SVGID_00000139985837270728809730000008102849594517729459_);" d="M1037.328,447.719
			l-19.8-21.812c0,0-89.337-76.198-90.883-160.463c-1.546-84.265-41.541-96.28-137.686-103.234
			c-81.285-5.88-175.095-20.185-251.661,26.296c-33.601,20.398-73.085,30.378-112.876,28.414l-87.703-4.329
			c-41.844-2.065-83.286,9.044-117.798,31.676c-51.164,33.551-107.059,95.981-87.045,204.142C135.274,466.774,137,486,137,504.649
			v45.809c0,40.231,33.413,73.281,75.614,74.87l658.56,24.796c67.689,2.549,133.373-22.257,180.834-68.3
			c12.656-12.278,19.754-28.798,19.754-46.005C1071.762,503.464,1059.544,472.191,1037.328,447.719z"/>
	</g>
	<g>
		<g>
			
				<linearGradient id="SVGID_00000165951307369926343030000009959174434371457946_" gradientUnits="userSpaceOnUse" x1="-6869.7842" y1="42.3504" x2="-6951.1509" y2="126.9396" gradientTransform="matrix(-0.9919 -0.1267 -0.1267 0.9919 -5885.688 -441.4702)">
				<stop  offset="0" style="stop-color:#FDF53F"/>
				<stop  offset="1" style="stop-color:#D93C65"/>
			</linearGradient>
			<path style="fill:url(#SVGID_00000165951307369926343030000009959174434371457946_);" d="M925.206,611.56
				c0,0,45.96,50.67,84.344,29.255c30.849-17.211-12.979-12.714-50.156-20.846c-2.918-0.638-2.154-4.999,0.807-4.607
				c29.087,3.857,73.471,7.008,81.179-8.158c11.637-22.896,0.352-15.47-35.067-12.163c-35.419,3.307-42.243-5.438-19.124-10.886
				c23.119-5.447,59.898,6.601,68.466-4.602c8.568-11.203,13.251-33.442,16.666-43.006s-44.089-23.914-56.931-11.359
				c-12.843,12.555-23.272,40.579-38.513,45.696c-15.241,5.116,1.154-19.673,11.262-32.468c10.108-12.795,14.115-22.305-6.08-19.253
				c-20.195,3.052-30.87,27.699-32.999,46.097c-2.129,18.398-9.242,28.688-8.92,19.586c0.322-9.102,3.625-37.015,10.08-45.407
				C956.676,531.047,910.599,541.289,925.206,611.56z"/>
			<path style="opacity:0.53;fill:#FFFFFF;" d="M928.947,612.043c0.202,0.077,0.439,0.043,0.613-0.11
				c39.449-34.512,105.613-59.597,106.277-59.846c0.313-0.117,0.47-0.465,0.353-0.779c-0.117-0.311-0.466-0.47-0.778-0.352
				c-0.666,0.25-67.031,25.409-106.648,60.068c-0.251,0.219-0.276,0.601-0.057,0.852
				C928.775,611.954,928.858,612.009,928.947,612.043z"/>
		</g>
		<g>
			
				<linearGradient id="SVGID_00000175286552038746399000000004114452709701579446_" gradientUnits="userSpaceOnUse" x1="-6950.4604" y1="214.2747" x2="-6754.6411" y2="-33.9602" gradientTransform="matrix(-0.9919 -0.1267 -0.1267 0.9919 -5885.688 -441.4702)">
				<stop  offset="0" style="stop-color:#CB236D"/>
				<stop  offset="1" style="stop-color:#4C246D"/>
			</linearGradient>
			<path style="fill:url(#SVGID_00000175286552038746399000000004114452709701579446_);" d="M897.459,643.921
				c0,0,83.934,2.769,97.847-49.365c11.181-41.899-22.296,0.581-61.226,26.409c-3.055,2.027-6.247-2.372-3.372-4.647
				c28.249-22.349,68.945-58.784,62.16-78.537c-10.243-29.82-13.338-13.527-40.681,20.524c-27.343,34.05-40.883,32.595-25.934,7.56
				c14.949-25.035,56.99-47.167,54.433-64.291c-2.557-17.124-18.162-40.251-23.676-51.432
				c-5.514-11.181-58.748,18.438-58.651,40.486c0.097,22.048,15.893,55.183,7.384,72.991c-8.51,17.807-16.358-17.824-19.003-37.666
				c-2.645-19.842-7.605-31.499-22.167-11.088c-14.562,20.411-1.953,50.878,12.448,68.472s17.396,32.656,9.647,24.596
				c-7.749-8.06-29.535-34.818-31.42-47.678C853.365,547.396,823.03,596.766,897.459,643.921z"/>
			<path style="opacity:0.53;fill:#FFFFFF;" d="M901.081,641.036c0.24-0.112,0.413-0.35,0.427-0.635
				c3.276-64.262,37.685-144.022,38.033-144.819c0.164-0.376-0.008-0.812-0.385-0.976c-0.374-0.163-0.812,0.009-0.975,0.385
				c-0.349,0.8-34.865,80.802-38.154,145.337c-0.021,0.408,0.294,0.757,0.703,0.778
				C900.855,641.112,900.975,641.086,901.081,641.036z"/>
		</g>
	</g>
	<g>
		<g>
			
				<linearGradient id="SVGID_00000067195522370385379070000012171222639425734814_" gradientUnits="userSpaceOnUse" x1="-6147.0801" y1="3335.4614" x2="-5925.7373" y2="3054.8713" gradientTransform="matrix(-0.7355 0.6775 0.6775 0.7355 -6113.7319 1961.6978)">
				<stop  offset="0" style="stop-color:#CB236D"/>
				<stop  offset="1" style="stop-color:#4C246D"/>
			</linearGradient>
			<path style="fill:url(#SVGID_00000067195522370385379070000012171222639425734814_);" d="M599.468,317.178
				c0,0,63.475-70.587,28.504-120.559c-28.106-40.162-15.723,19.709-21.711,72.177c-0.47,4.117-6.598,3.677-6.473-0.465
				c1.226-40.699-0.675-102.414-22.699-110.92c-33.247-12.84-21.406,1.694-11.851,50.124c9.556,48.43-1.557,59.083-12.333,27.934
				c-10.777-31.149,0.674-83.62-15.999-93.869c-16.673-10.249-48.033-13.581-61.718-16.948
				c-13.684-3.367-26.803,64.234-7.661,80.195c19.142,15.961,59.299,26.41,68.509,46.729c9.211,20.319-27.321,1.179-46.409-10.973
				c-19.088-12.151-32.78-16.344-25.722,11.105c7.058,27.449,42.588,38.714,68.286,39.061c25.698,0.347,40.906,8.717,28.295,9.555
				c-12.611,0.838-51.61,0.21-64.105-7.518C483.886,285.077,504.516,347.243,599.468,317.178z"/>
			<path style="opacity:0.53;fill:#FFFFFF;" d="M599.608,311.946c0.078-0.29-0.002-0.612-0.239-0.831
				c-53.202-49.597-97.153-137.404-97.59-138.285c-0.206-0.415-0.708-0.584-1.124-0.378c-0.413,0.205-0.583,0.709-0.377,1.124
				c0.438,0.884,44.521,88.958,97.95,138.766c0.338,0.315,0.868,0.297,1.184-0.042C599.509,312.196,599.574,312.074,599.608,311.946
				z"/>
		</g>
		<g>
			
				<linearGradient id="SVGID_00000058572205256980020580000002578889971616516789_" gradientUnits="userSpaceOnUse" x1="-6475.9497" y1="-262.1601" x2="-6567.9258" y2="-166.5418" gradientTransform="matrix(-0.9919 -0.1267 -0.1267 0.9919 -5885.688 -441.4702)">
				<stop  offset="0" style="stop-color:#FDF53F"/>
				<stop  offset="1" style="stop-color:#D93C65"/>
			</linearGradient>
			<path style="fill:url(#SVGID_00000058572205256980020580000002578889971616516789_);" d="M573.42,277.952
				c0,0,51.952,57.276,95.341,33.069c34.871-19.455-14.671-14.371-56.695-23.563c-3.298-0.721-2.435-5.651,0.912-5.207
				c32.88,4.359,83.05,7.922,91.764-9.222c13.155-25.881,0.398-17.487-39.639-13.749c-40.037,3.739-47.751-6.147-21.617-12.305
				c26.134-6.157,67.708,7.462,77.392-5.202c9.685-12.664,14.978-37.802,18.839-48.613c3.86-10.811-49.837-27.033-64.354-12.84
				c-14.517,14.192-26.306,45.87-43.534,51.654c-17.228,5.784,1.304-22.238,12.73-36.701c11.426-14.463,15.955-25.213-6.872-21.763
				c-22.828,3.45-34.895,31.31-37.301,52.107c-2.406,20.796-10.447,32.428-10.083,22.14c0.364-10.289,4.098-41.841,11.394-51.327
				C608.993,186.942,556.909,198.519,573.42,277.952z"/>
			<path style="opacity:0.53;fill:#FFFFFF;" d="M577.649,278.498c0.229,0.087,0.496,0.049,0.693-0.125
				c44.592-39.012,119.383-67.367,120.133-67.649c0.353-0.133,0.531-0.526,0.399-0.88c-0.132-0.351-0.526-0.531-0.88-0.398
				c-0.753,0.282-75.771,28.722-120.553,67.9c-0.284,0.248-0.312,0.679-0.064,0.963C577.454,278.397,577.548,278.46,577.649,278.498
				z"/>
		</g>
	</g>
	<g>
		<g>
			
				<linearGradient id="SVGID_00000132790669101699469820000011269818886282514590_" gradientUnits="userSpaceOnUse" x1="459.4334" y1="54.1177" x2="25.884" y2="1183.2522">
				<stop  offset="0" style="stop-color:#53D8FF"/>
				<stop  offset="1" style="stop-color:#3840F7"/>
			</linearGradient>
			<path style="fill:url(#SVGID_00000132790669101699469820000011269818886282514590_);" d="M170.787,667.144h286.732
				c9.143,0,16.555-7.412,16.555-16.555V221.13c0-9.126-7.385-16.531-16.511-16.555l-289.025-0.776
				c-9.195-0.025-16.649,7.449-16.6,16.644l2.293,430.234C154.28,659.785,161.678,667.144,170.787,667.144z"/>
			
				<linearGradient id="SVGID_00000026865457228287649530000010546511172874569886_" gradientUnits="userSpaceOnUse" x1="167.9357" y1="437.5763" x2="457.9177" y2="437.5763">
				<stop  offset="0" style="stop-color:#53D8FF"/>
				<stop  offset="1" style="stop-color:#3840F7"/>
			</linearGradient>
			<path style="fill:url(#SVGID_00000026865457228287649530000010546511172874569886_);" d="M184.838,224.989l256.385,1.578
				c9.267,0.057,16.738,7.609,16.695,16.876l-1.789,385.454c-0.042,9.128-7.366,16.551-16.492,16.718l-249.11,4.545
				c-9.304,0.17-16.973-7.256-17.103-16.56l-5.486-391.578C167.806,232.614,175.428,224.931,184.838,224.989z"/>
			<path style="opacity:0.6;fill:#FFFFFF;" d="M195.262,246.584v1.768c0,2.775,2.25,5.025,5.025,5.025h197.543
				c2.775,0,5.025-2.25,5.025-5.025v-1.768c0-2.775-2.25-5.025-5.025-5.025H200.288
				C197.512,241.559,195.262,243.809,195.262,246.584z"/>
			<path style="opacity:0.6;fill:#FFFFFF;" d="M217.303,268.817L217.303,268.817c0.143,2.631,2.292,4.705,4.926,4.753l172.761,3.148
				c2.811,0.051,5.117-2.213,5.117-5.025v-0.41c0-2.744-2.202-4.981-4.946-5.025l-172.761-2.738
				C219.487,263.474,217.145,265.907,217.303,268.817z"/>
			<path style="opacity:0.61;fill:#FFFFFF;" d="M199.67,636.61c-7.565,0-13.799-6.107-13.934-13.69l-5.606-315.254
				c-0.136-7.669,5.993-14.031,13.663-14.182l233.263-4.54c3.712-0.053,7.251,1.311,9.934,3.893c2.683,2.582,4.2,6.055,4.271,9.777
				l6.012,316.99c0.071,3.74-1.324,7.279-3.928,9.965c-2.604,2.686-6.098,4.19-9.839,4.234l-233.669,2.805
				C199.781,636.61,199.725,636.61,199.67,636.61z M184.13,307.597l5.606,315.254c0.096,5.406,4.541,9.76,9.934,9.76
				c0.04,0,0.08,0,0.119-0.001l233.669-2.805c2.667-0.031,5.158-1.104,7.015-3.019c1.856-1.915,2.851-4.438,2.8-7.104l-6.012-316.99
				c-0.05-2.655-1.132-5.131-3.045-6.972c-1.913-1.841-4.425-2.853-7.083-2.774l-233.262,4.54
				C188.402,297.592,184.033,302.128,184.13,307.597L184.13,307.597z"/>
			<path style="opacity:0.61;fill:#FFFFFF;" d="M439.639,324.662H185.157c-1.104,0-2-0.896-2-2c0-1.105,0.896-2,2-2h254.482
				c1.104,0,2,0.895,2,2C441.639,323.767,440.744,324.662,439.639,324.662z"/>
		</g>
		<g>
			
				<linearGradient id="SVGID_00000147915272864421429340000012051464066823369884_" gradientUnits="userSpaceOnUse" x1="401" y1="214.5" x2="418" y2="214.5">
				<stop  offset="0" style="stop-color:#9CFFFB"/>
				<stop  offset="1" style="stop-color:#9BFFFA"/>
			</linearGradient>
			<path style="fill:url(#SVGID_00000147915272864421429340000012051464066823369884_);" d="M418,214.5c0,3.59-2.91,6.5-6.5,6.5h-4
				c-3.59,0-6.5-2.91-6.5-6.5l0,0c0-3.59,2.91-6.5,6.5-6.5h4C415.09,208,418,210.91,418,214.5L418,214.5z"/>
			
				<linearGradient id="SVGID_00000096034226086373523750000000370169660412418492_" gradientUnits="userSpaceOnUse" x1="422" y1="214.5" x2="439" y2="214.5">
				<stop  offset="0" style="stop-color:#9CFFFB"/>
				<stop  offset="1" style="stop-color:#9BFFFA"/>
			</linearGradient>
			<path style="fill:url(#SVGID_00000096034226086373523750000000370169660412418492_);" d="M439,214.5c0,3.59-2.91,6.5-6.5,6.5h-4
				c-3.59,0-6.5-2.91-6.5-6.5l0,0c0-3.59,2.91-6.5,6.5-6.5h4C436.09,208,439,210.91,439,214.5L439,214.5z"/>
			
				<linearGradient id="SVGID_00000042730001282105041690000008433235567831729086_" gradientUnits="userSpaceOnUse" x1="443" y1="214.5" x2="460" y2="214.5">
				<stop  offset="0" style="stop-color:#9CFFFB"/>
				<stop  offset="1" style="stop-color:#9BFFFA"/>
			</linearGradient>
			<path style="fill:url(#SVGID_00000042730001282105041690000008433235567831729086_);" d="M460,214.5c0,3.59-2.91,6.5-6.5,6.5h-4
				c-3.59,0-6.5-2.91-6.5-6.5l0,0c0-3.59,2.91-6.5,6.5-6.5h4C457.09,208,460,210.91,460,214.5L460,214.5z"/>
		</g>
	</g>
	<g>
		<g>
			
				<linearGradient id="SVGID_00000046335834252949363230000014787407824330938274_" gradientUnits="userSpaceOnUse" x1="525.6959" y1="614.9229" x2="674.1559" y2="169.5415">
				<stop  offset="0" style="stop-color:#2B3582"/>
				<stop  offset="1" style="stop-color:#150E42"/>
			</linearGradient>
			<path style="fill:url(#SVGID_00000046335834252949363230000014787407824330938274_);" d="M909.032,631.08
				c0,6.387-5.231,11.613-11.624,11.613H268.815c-6.393,0-11.624-5.226-11.624-11.613l-5.231-361.235
				c0-6.387,7.525-18.857,21.316-17.92l614.33-15.896c8.022-0.207,15.778,2.88,21.458,8.542c5.681,5.662,8.789,13.404,8.599,21.418
				L909.032,631.08z"/>
			
				<linearGradient id="SVGID_00000042731811168323372720000005285820254351182774_" gradientUnits="userSpaceOnUse" x1="560.8901" y1="637.6983" x2="628.011" y2="80.2184">
				<stop  offset="0" style="stop-color:#A737D5"/>
				<stop  offset="1" style="stop-color:#EF497A"/>
			</linearGradient>
			<path style="fill:url(#SVGID_00000042731811168323372720000005285820254351182774_);" d="M897.556,619.939
				c0,6.049-4.949,10.997-10.997,10.997H283.973c-6.048,0-10.997-4.949-10.997-10.997l-4.936-327.932
				c0.581-19.734,17.883-26.827,28.371-26.408l588.797-15.796c5.636-0.151,11.086,2.018,15.076,6.001
				c3.99,3.983,6.169,9.43,6.028,15.066L897.556,619.939z"/>
			<g>
				<path style="fill:#FFFFFF;" d="M279.488,463.535c-0.545,0-0.992-0.438-1-0.985l-0.391-26.595
					c-0.008-0.552,0.433-1.007,0.985-1.015c0.54-0.035,1.007,0.434,1.015,0.985l0.391,26.595c0.008,0.552-0.433,1.007-0.985,1.015
					C279.498,463.535,279.493,463.535,279.488,463.535z"/>
				<path style="fill:#FFFFFF;" d="M278.531,398.364c-0.545,0-0.992-0.438-1-0.985l-1.496-101.857
					c0.031-6.836,2.138-12.297,6.263-16.25c7.497-7.185,19.221-6.826,19.719-6.805l188.017-5.046
					c0.542-0.038,1.011,0.422,1.026,0.974c0.015,0.552-0.421,1.011-0.973,1.026l-188.075,5.046
					c-0.533-0.018-11.438-0.355-18.33,6.249c-3.719,3.564-5.619,8.541-5.647,14.796l1.496,101.838
					c0.008,0.552-0.433,1.007-0.985,1.015C278.541,398.364,278.536,398.364,278.531,398.364z"/>
			</g>
			
				<linearGradient id="SVGID_00000171692465625709688750000007016903124009166768_" gradientUnits="userSpaceOnUse" x1="298.3107" y1="444.4044" x2="884.5281" y2="444.4044">
				<stop  offset="0" style="stop-color:#B37CFF"/>
				<stop  offset="1" style="stop-color:#F895E7"/>
			</linearGradient>
			<path style="opacity:0.5;fill:url(#SVGID_00000171692465625709688750000007016903124009166768_);" d="M299.524,601.747
				c0.631-27.104,0.396-267.117-1.159-287.845c-1.555-20.729,30.728-24.617,80.293-26.949
				c49.565-2.333,467.762-11.568,478.53-12.441c24.203-1.963,29.213,34.214,26.792,112.751
				c-1.819,59.004-4.834,156.202-6.221,200.902c-0.413,13.31-11.292,23.87-24.607,23.906
				c-100.636,0.276-486.342,1.382-512.019,2.146C311.584,615.096,299.273,612.494,299.524,601.747z"/>
		</g>
		
			<linearGradient id="SVGID_00000120524589298396132790000011232174376993809066_" gradientUnits="userSpaceOnUse" x1="561.772" y1="808.3262" x2="617.7172" y2="502.4314">
			<stop  offset="0" style="stop-color:#2B3582"/>
			<stop  offset="1" style="stop-color:#150E42"/>
		</linearGradient>
		<path style="fill:url(#SVGID_00000120524589298396132790000011232174376993809066_);" d="M944.156,672.68H234.809
			c-8.728,0-15.87-7.141-15.87-15.87l0,0c0-8.728,7.141-15.87,15.87-15.87h709.347c8.728,0,15.87,7.141,15.87,15.87l0,0
			C960.026,665.539,952.885,672.68,944.156,672.68z"/>
	</g>
	<g>
		<g>
			<g>
				<path style="fill:#FFFFFF;" d="M938.651,595.135c-0.076,0-0.153-0.005-0.231-0.014l-13.28-1.61
					c-0.811-0.099-1.472-0.701-1.643-1.501l-2.223-10.36c-4.694-1.777-9.074-4.249-13.037-7.356l-10.023,3.463
					c-0.772,0.268-1.63,0.014-2.134-0.63l-8.252-10.527c-0.504-0.644-0.544-1.537-0.1-2.223l5.757-8.904
					c-2.07-4.592-3.423-9.436-4.027-14.418l-9.529-4.635c-0.735-0.357-1.163-1.142-1.064-1.954l1.61-13.279
					c0.098-0.811,0.701-1.472,1.5-1.642l10.361-2.224c1.776-4.692,4.248-9.073,7.356-13.036l-3.463-10.023
					c-0.267-0.771-0.015-1.629,0.629-2.134l10.529-8.252c0.642-0.504,1.535-0.543,2.222-0.101l8.905,5.758
					c4.59-2.069,9.434-3.423,14.417-4.027l4.635-9.528c0.358-0.736,1.144-1.165,1.956-1.063l13.278,1.609
					c0.81,0.099,1.471,0.701,1.642,1.5l2.224,10.361c4.692,1.775,9.073,4.248,13.037,7.356l10.023-3.464
					c0.771-0.268,1.629-0.015,2.134,0.629l8.251,10.529c0.504,0.643,0.544,1.536,0.101,2.223l-5.758,8.904
					c2.07,4.591,3.423,9.436,4.027,14.417l9.529,4.635c0.735,0.357,1.163,1.144,1.064,1.955l-1.61,13.278
					c-0.098,0.812-0.701,1.473-1.5,1.644l-10.361,2.223c-1.777,4.693-4.248,9.074-7.356,13.037l3.463,10.023
					c0.268,0.772,0.014,1.63-0.63,2.134l-10.528,8.251c-0.643,0.505-1.537,0.545-2.224,0.1l-8.903-5.756
					c-4.593,2.07-9.438,3.423-14.418,4.026l-4.635,9.529C940.051,594.721,939.378,595.135,938.651,595.135z M908.625,572.044
					l0.43,0.345c4.05,3.249,8.567,5.798,13.426,7.575l0.518,0.19l2.454,11.435l13.208,1.545l5.031-10.472l0.548-0.061
					c5.14-0.564,10.135-1.959,14.848-4.146l0.501-0.233l9.828,6.355l10.384-8.21l-3.802-11.006l0.345-0.431
					c3.25-4.051,5.798-8.568,7.575-13.426l0.19-0.519l11.437-2.453l1.545-13.208l-10.472-5.031l-0.061-0.549
					c-0.565-5.142-1.96-10.137-4.148-14.848l-0.232-0.5l6.356-9.828l-8.247-10.432l-10.97,3.85l-0.43-0.345
					c-4.052-3.251-8.569-5.8-13.425-7.575l-0.518-0.189l-2.454-11.438l-13.208-1.544l-5.031,10.471l-0.548,0.061
					c-5.143,0.565-10.138,1.961-14.848,4.147l-0.5,0.232l-9.828-6.355l-10.432,8.247l3.85,10.97l-0.345,0.431
					c-3.25,4.052-5.798,8.568-7.575,13.425l-0.189,0.518l-11.378,2.442l-1.603,13.221l10.472,5.03l0.061,0.549
					c0.564,5.142,1.959,10.137,4.147,14.848l0.233,0.5l-6.356,9.829l8.247,10.431L908.625,572.044z M939.276,568.143
					c-1.351,0-2.711-0.082-4.074-0.247c-5.989-0.727-11.659-3.058-16.396-6.74c-0.436-0.339-0.515-0.967-0.176-1.402
					c0.339-0.438,0.967-0.517,1.403-0.176c4.452,3.46,9.78,5.65,15.41,6.332c8.292,1.006,16.483-1.277,23.059-6.431
					c6.576-5.154,10.751-12.56,11.757-20.854c1.005-8.294-1.279-16.483-6.433-23.06c-5.153-6.575-12.559-10.751-20.853-11.756
					c-8.295-1.007-16.483,1.278-23.059,6.432c-6.576,5.153-10.751,12.56-11.757,20.853c-0.269,2.216-0.302,4.457-0.1,6.66
					c0.051,0.551-0.354,1.037-0.904,1.088c-0.553,0.054-1.037-0.354-1.087-0.904c-0.215-2.345-0.18-4.727,0.106-7.084
					c1.07-8.824,5.512-16.703,12.509-22.187c6.997-5.483,15.71-7.911,24.533-6.844c8.824,1.07,16.704,5.513,22.187,12.509
					c5.483,6.996,7.913,15.709,6.844,24.533c-1.07,8.824-5.512,16.704-12.509,22.187
					C953.82,565.688,946.677,568.142,939.276,568.143z"/>
				<path style="fill:#FFFFFF;" d="M938.976,547.9c-1.565,0-3.132-0.289-4.637-0.869c-3.21-1.236-5.745-3.65-7.14-6.794
					c-1.395-3.145-1.481-6.645-0.244-9.854l0,0c2.555-6.625,10.022-9.94,16.648-7.384c6.625,2.555,9.938,10.023,7.384,16.648
					c-1.237,3.21-3.65,5.745-6.795,7.141C942.521,547.528,940.75,547.9,938.976,547.9z M928.821,531.102
					c-1.045,2.712-0.972,5.668,0.206,8.323c1.178,2.656,3.32,4.694,6.031,5.74c2.71,1.045,5.667,0.972,8.323-0.207
					c2.656-1.178,4.694-3.319,5.739-6.03c2.157-5.597-0.641-11.905-6.237-14.064C937.289,522.709,930.979,525.506,928.821,531.102
					L928.821,531.102z"/>
			</g>
			<g>
				<path style="fill:#FFFFFF;" d="M1034.118,509.487c-0.416,0-0.821-0.18-1.101-0.512l-3.111-3.679
					c-2.268,0.267-4.547,0.215-6.793-0.151l-3.273,3.532c-0.418,0.449-1.074,0.583-1.635,0.34l-5.89-2.598
					c-0.562-0.248-0.905-0.826-0.854-1.438l0.401-4.8c-1.786-1.409-3.361-3.059-4.693-4.914l-4.815,0.183
					c-0.626,0.049-1.178-0.347-1.399-0.92l-2.326-5.997c-0.222-0.573-0.056-1.224,0.412-1.62l3.68-3.113
					c-0.268-2.267-0.217-4.546,0.151-6.792l-3.532-3.274c-0.452-0.418-0.587-1.077-0.338-1.64l2.595-5.885
					c0.247-0.562,0.831-0.918,1.438-0.854l4.799,0.4c1.41-1.785,3.059-3.36,4.914-4.692l-0.183-4.816
					c-0.024-0.615,0.347-1.178,0.921-1.399l5.996-2.326c0.575-0.219,1.225-0.054,1.621,0.413l3.112,3.68
					c2.267-0.269,4.546-0.216,6.793,0.152l3.273-3.532c0.418-0.452,1.076-0.586,1.639-0.339l5.886,2.596
					c0.563,0.249,0.905,0.827,0.854,1.438l-0.401,4.8c1.786,1.41,3.361,3.059,4.692,4.914l4.815-0.184
					c0.616-0.014,1.174,0.347,1.397,0.916l2.328,6.001c0.222,0.574,0.056,1.226-0.414,1.622l-3.679,3.111
					c0.267,2.268,0.216,4.548-0.152,6.793l3.532,3.273c0.451,0.417,0.587,1.075,0.339,1.638l-2.597,5.887
					c-0.248,0.563-0.822,0.911-1.438,0.854l-4.799-0.4c-1.412,1.787-3.061,3.362-4.914,4.691l0.183,4.816
					c0.022,0.614-0.347,1.175-0.917,1.397l-6,2.327C1034.469,509.455,1034.292,509.487,1034.118,509.487z M1030.725,503.168
					l3.563,4.213l5.255-2.038l-0.209-5.514l0.456-0.311c2.013-1.377,3.776-3.061,5.24-5.004l0.332-0.44l5.494,0.459l2.275-5.157
					l-4.043-3.748l0.102-0.543c0.448-2.389,0.502-4.826,0.162-7.244l-0.077-0.547l4.212-3.563l-2.038-5.255l-5.513,0.21
					l-0.312-0.456c-1.378-2.015-3.062-3.777-5.004-5.24l-0.441-0.332l0.459-5.495l-5.157-2.273l-3.748,4.044l-0.543-0.102
					c-2.39-0.447-4.827-0.502-7.244-0.162l-0.547,0.077l-3.563-4.213l-5.254,2.039l0.209,5.513l-0.455,0.311
					c-2.016,1.38-3.779,3.064-5.241,5.005l-0.332,0.441l-5.495-0.46l-2.274,5.157l4.043,3.748l-0.102,0.543
					c-0.448,2.39-0.503,4.827-0.162,7.243l0.077,0.547l-4.212,3.563l2.038,5.255l5.513-0.209l0.312,0.456
					c1.379,2.015,3.063,3.777,5.005,5.24l0.441,0.332l-0.459,5.494l5.157,2.274l3.747-4.044l0.542,0.103
					c2.391,0.446,4.829,0.502,7.245,0.161L1030.725,503.168z M1027.168,497.442c-2.225,0-4.482-0.451-6.645-1.405
					c-2.741-1.208-5.099-3.134-6.819-5.567c-0.319-0.451-0.212-1.075,0.239-1.393c0.451-0.319,1.075-0.211,1.394,0.239
					c1.512,2.138,3.584,3.829,5.993,4.892c7.328,3.23,15.919-0.102,19.151-7.428c3.232-7.328-0.1-15.919-7.428-19.15
					c-7.329-3.231-15.919,0.102-19.151,7.428c-0.418,0.947-0.735,1.938-0.943,2.946c-0.112,0.54-0.642,0.886-1.181,0.777
					c-0.541-0.111-0.889-0.641-0.778-1.182c0.236-1.146,0.597-2.272,1.072-3.349c3.677-8.338,13.453-12.13,21.788-8.451
					c8.337,3.677,12.128,13.451,8.451,21.787C1039.588,493.761,1033.52,497.441,1027.168,497.442z"/>
			</g>
		</g>
	</g>
	<g>
		
			<linearGradient id="SVGID_00000093871662271877915350000002633453285039123629_" gradientUnits="userSpaceOnUse" x1="976.0079" y1="218.8083" x2="907.7195" y2="257.7863" gradientTransform="matrix(-1 0 0 1 1722.5858 0)">
			<stop  offset="0" style="stop-color:#F9B776"/>
			<stop  offset="1" style="stop-color:#F47960"/>
		</linearGradient>
		<path style="fill:url(#SVGID_00000093871662271877915350000002633453285039123629_);" d="M756.96,282.352
			c0.081-0.031,43.395-75.885,49.248-83.023c0.985-1.201,2.508-1.812,4.051-1.628l12.09,1.441l14.203,30.726l-23.662-13.78
			c2.341,16.193-28.055,40.257-38.48,49.038c-1.058,0.891-1.145,2.487-0.189,3.488l4.162,4.357
			c-6.833,6.926-14.717,11.373-23.616,13.43L756.96,282.352z"/>
		
			<linearGradient id="SVGID_00000176034202466938067690000009894797398288068535_" gradientUnits="userSpaceOnUse" x1="5290.4111" y1="1263.3734" x2="5285.1689" y2="1343.7548" gradientTransform="matrix(0.8974 -0.4412 0.4412 0.8974 -4549.5103 1458.1592)">
			<stop  offset="0" style="stop-color:#CB236D"/>
			<stop  offset="1" style="stop-color:#4C246D"/>
		</linearGradient>
		<path style="fill:url(#SVGID_00000176034202466938067690000009894797398288068535_);" d="M775.975,270.618
			c0,0,2.656,0.858,3.556,3.224c0.43,1.132-0.034,2.414-1.018,3.119c-4.374,3.133-18.801,13.25-25.459,15.232
			c-0.546,0.162-1.065-0.331-0.942-0.887c0.342-1.547,1.447-4.635,5.007-9.156l-0.319,0.646c-0.404,0.818,0.486,1.669,1.281,1.221
			C762.533,281.501,771.603,275.999,775.975,270.618z"/>
		
			<linearGradient id="SVGID_00000057110779908660575080000001960828465261677442_" gradientUnits="userSpaceOnUse" x1="969.4018" y1="228.5291" x2="1203.0505" y2="82.2614" gradientTransform="matrix(-1 0 0 1 1722.5858 0)">
			<stop  offset="0" style="stop-color:#F9B776"/>
			<stop  offset="1" style="stop-color:#F47960"/>
		</linearGradient>
		<path style="fill:url(#SVGID_00000057110779908660575080000001960828465261677442_);" d="M773.831,300.969
			c0.073-0.047,6.571-15.704,6.644-15.75c5.958-36.277,20.496-67.347,24.783-75.522c0.721-1.375,2.09-2.282,3.637-2.414
			l12.131-1.036l20.128,27.216l-25.961-8.706c5.57,15.384-19.328,45.102-27.76,55.811c-0.856,1.087-0.618,2.667,0.52,3.454
			l4.958,3.424c-5.29,8.165-12.111,14.116-20.409,17.931L773.831,300.969z"/>
		
			<linearGradient id="SVGID_00000154409615646241050960000010384779329902820496_" gradientUnits="userSpaceOnUse" x1="5220.5493" y1="1730.7463" x2="5215.3076" y2="1811.1216" gradientTransform="matrix(0.7895 -0.6137 0.6137 0.7895 -4416.3481 2114.6309)">
			<stop  offset="0" style="stop-color:#CB236D"/>
			<stop  offset="1" style="stop-color:#4C246D"/>
		</linearGradient>
		<path style="fill:url(#SVGID_00000154409615646241050960000010384779329902820496_);" d="M790.078,285.629
			c0,0,2.775,0.303,4.134,2.438c0.65,1.021,0.456,2.371-0.366,3.26c-3.649,3.954-15.73,16.781-21.849,20.069
			c-0.502,0.27-1.11-0.109-1.102-0.678c0.022-1.584,0.479-4.832,3.05-9.98l-0.182,0.697c-0.23,0.883,0.814,1.536,1.501,0.936
			C779.117,299.008,786.886,291.784,790.078,285.629z"/>
		<g>
			
				<linearGradient id="SVGID_00000014592504520188944880000010881320920759854480_" gradientUnits="userSpaceOnUse" x1="4994.0229" y1="269.8361" x2="5006.1738" y2="225.03" gradientTransform="matrix(1 0 0 1 -4163.8774 0)">
				<stop  offset="0" style="stop-color:#102792"/>
				<stop  offset="0.9964" style="stop-color:#3EA7C4"/>
			</linearGradient>
			<path style="fill:url(#SVGID_00000014592504520188944880000010881320920759854480_);" d="M877.812,200.514
				c0,0,10.974,16.323,11.875,23.769c0.901,7.446-3.034,10.021-14.521,10.97c-34.181,2.826-51.031-7.419-51.031-7.419
				c-2.338-14.909-4.002-18.701-23.531-26.808c0,0,24.7,1.961,29.671,0.032C835.246,199.13,877.812,200.514,877.812,200.514z"/>
		</g>
		<g>
			
				<linearGradient id="SVGID_00000108284799622915936920000008291001783089756052_" gradientUnits="userSpaceOnUse" x1="897.9814" y1="144.3728" x2="736.9998" y2="299.6563" gradientTransform="matrix(-1 0 0 1 1722.5858 0)">
				<stop  offset="0" style="stop-color:#102792"/>
				<stop  offset="0.9964" style="stop-color:#3EA7C4"/>
			</linearGradient>
			<path style="fill:url(#SVGID_00000108284799622915936920000008291001783089756052_);" d="M848.133,198.354
				c0,0-12.78-12.169-19.07-20.229c-3.401-4.357-4.468-10.092-2.896-15.391c2.872-9.676,7.976-19.698,8.442-21.258
				c0.713-2.391,15.043-2.291,15.043-2.291s28.197,18.3,39.276,49.299l-12.442,3.873c0,0-7.362-12.352-14.637-20.204
				c0,0,12.587,16.628,13.031,23.435L848.133,198.354z"/>
			
				<linearGradient id="SVGID_00000171705905569518902590000014830433665930962087_" gradientUnits="userSpaceOnUse" x1="5008.6436" y1="158.3833" x2="5004.0039" y2="128.6118" gradientTransform="matrix(1 0 0 1 -4163.8774 0)">
				<stop  offset="0" style="stop-color:#F9B776"/>
				<stop  offset="1" style="stop-color:#F47960"/>
			</linearGradient>
			<path style="fill:url(#SVGID_00000171705905569518902590000014830433665930962087_);" d="M832.875,128.115
				c0.15,0.497,3.89,12.896,4.182,13.153c0.293,0.257,8.202,0.683,11.925-1.862l-7.599-16.81L832.875,128.115z"/>
			
				<linearGradient id="SVGID_00000022556557197517404060000005057166405811528125_" gradientUnits="userSpaceOnUse" x1="5008.0635" y1="1775.5972" x2="5038.0454" y2="1795.962" gradientTransform="matrix(0.723 -0.6909 0.6909 0.723 -4027.0837 2302.6511)">
				<stop  offset="0" style="stop-color:#F9B776"/>
				<stop  offset="1" style="stop-color:#F47960"/>
			</linearGradient>
			<path style="fill:url(#SVGID_00000022556557197517404060000005057166405811528125_);" d="M822.589,114.188
				c0,0-2.663,6.15,0.466,15.501c3.128,9.351,8.241,10.163,11.479,7.852c3.238-2.312,7.436-6.442,7.958-14.913
				C843.014,114.158,826.257,106.409,822.589,114.188z"/>
			
				<linearGradient id="SVGID_00000073715556566921643080000010579309664234408623_" gradientUnits="userSpaceOnUse" x1="5060.3887" y1="1737.3391" x2="5010.1006" y2="1789.6591" gradientTransform="matrix(0.723 -0.6909 0.6909 0.723 -4027.0837 2302.6511)">
				<stop  offset="0" style="stop-color:#CB236D"/>
				<stop  offset="1" style="stop-color:#4C246D"/>
			</linearGradient>
			<path style="fill:url(#SVGID_00000073715556566921643080000010579309664234408623_);" d="M836.174,122.077
				c0,0-5.65-12.655-14.123-4.772l-0.654,3.257c0,0-8.07-2.299-5.418-9.611c2.652-7.313,12.296-12.273,20.927-7.533
				c8.631,4.74,11.565,10.323,11.101,16.979c-0.464,6.657-5.453,4.379-5.453,4.379s-0.96-4.894-3.304-5.764
				c-2.344-0.869-2.294,2.835-2.294,2.835L836.174,122.077z"/>
			
				<linearGradient id="SVGID_00000005983324643195605490000006231785953437034900_" gradientUnits="userSpaceOnUse" x1="5009.8604" y1="1772.9518" x2="5039.8423" y2="1793.3168" gradientTransform="matrix(0.723 -0.6909 0.6909 0.723 -4027.0837 2302.6511)">
				<stop  offset="0" style="stop-color:#F9B776"/>
				<stop  offset="1" style="stop-color:#F47960"/>
			</linearGradient>
			<path style="fill:url(#SVGID_00000005983324643195605490000006231785953437034900_);" d="M838.117,122.232
				c0,0-2.942-6.488,1.179-6.723c4.122-0.235,2.445,6.255,1.623,8.623L838.117,122.232z"/>
			
				<linearGradient id="SVGID_00000124850601488489790720000012877358170597293992_" gradientUnits="userSpaceOnUse" x1="5030.0596" y1="196.341" x2="5098.085" y2="196.341" gradientTransform="matrix(1 0 0 1 -4163.8774 0)">
				<stop  offset="0" style="stop-color:#F9B776"/>
				<stop  offset="1" style="stop-color:#F47960"/>
			</linearGradient>
			<path style="fill:url(#SVGID_00000124850601488489790720000012877358170597293992_);" d="M823.784,203.156l9.603-10.448
				l11.09,2.986c0,0,12.929,2.003,20.329,0c7.4-2.003,7.4-2.003,7.4-2.003l16.722-5.206l2.626,7.422
				c0.667,1.885-0.003,3.977-1.633,5.134c-1.447,1.028-3.143,2.158-4.223,2.631c-2.202,0.963-50.729,0.305-50.729,0.305
				L823.784,203.156z"/>
			
				<linearGradient id="SVGID_00000075848169028368458500000016400486887575332018_" gradientUnits="userSpaceOnUse" x1="5162.2554" y1="1562.7241" x2="5107.2651" y2="1619.9362" gradientTransform="matrix(0.7808 -0.6248 0.6248 0.7808 -4134.6143 2069.4819)">
				<stop  offset="0" style="stop-color:#CB236D"/>
				<stop  offset="1" style="stop-color:#4C246D"/>
			</linearGradient>
			<path style="fill:url(#SVGID_00000075848169028368458500000016400486887575332018_);" d="M840.456,108.109
				c-2.309-0.281-3.238-3.134-1.667-4.85c5.07-5.539,14.639-11.685,28.272-2.254c15.357,10.624,23.666,15.43,27.438,14.422
				c2.477-0.662,4.632,1.788,3.461,4.07c-0.865,1.687-2.626,3.449-5.881,5.055C866.977,136.937,854.001,109.757,840.456,108.109z"/>
		</g>
		<g>
			
				<linearGradient id="SVGID_00000163789968291624931030000014151900529242102946_" gradientUnits="userSpaceOnUse" x1="4976.3047" y1="560.8336" x2="4940.7183" y2="570.5868" gradientTransform="matrix(0.9988 -0.0494 0.0494 0.9988 -4134.9751 -118.7758)">
				<stop  offset="0" style="stop-color:#2B3582"/>
				<stop  offset="1" style="stop-color:#150E42"/>
			</linearGradient>
			<path style="fill:url(#SVGID_00000163789968291624931030000014151900529242102946_);" d="M855.569,207.291
				c-0.034,0.002-0.068,0.003-0.102,0.002l-44.168-0.048c-1.092-0.001-1.976-0.887-1.975-1.979c0.001-1.092,0.89-1.995,1.979-1.975
				l44.168,0.048c1.092,0.001,1.976,0.887,1.975,1.979C857.446,206.376,856.614,207.239,855.569,207.291z"/>
			
				<linearGradient id="SVGID_00000013895796708476902450000011982778904327087509_" gradientUnits="userSpaceOnUse" x1="4978.7759" y1="172.5664" x2="4953.5259" y2="199.254" gradientTransform="matrix(1 0 0 1 -4163.8774 0)">
				<stop  offset="0" style="stop-color:#2B3582"/>
				<stop  offset="1" style="stop-color:#150E42"/>
			</linearGradient>
			<path style="fill:url(#SVGID_00000013895796708476902450000011982778904327087509_);" d="M771.595,167.189h36.783
				c2.714,0,5.183,1.566,6.341,4.02l17.005,36.058h-45.712c-1.749,0-3.32-1.068-3.963-2.695l-13.186-33.366
				C768.102,169.278,769.522,167.189,771.595,167.189z"/>
			
				<linearGradient id="SVGID_00000093172988975886536000000015033160298942160037_" gradientUnits="userSpaceOnUse" x1="4963.5112" y1="179.2115" x2="4952.0547" y2="196.464" gradientTransform="matrix(1 0 0 1 -4163.8774 0)">
				<stop  offset="0" style="stop-color:#53D8FF"/>
				<stop  offset="1" style="stop-color:#3840F7"/>
			</linearGradient>
			<path style="fill:url(#SVGID_00000093172988975886536000000015033160298942160037_);" d="M797.51,185.677
				c0.797,2.477,0.208,4.882-1.315,5.372c-1.523,0.49-3.405-1.12-4.202-3.596c-0.797-2.477-0.208-4.882,1.315-5.372
				C794.831,181.59,796.712,183.201,797.51,185.677z"/>
		</g>
	</g>
	<g>
		<path style="fill:#FFFFFF;" d="M374.146,591.753c-1.174,0-2.273-0.516-3.268-1.535c-13.815-14.159-6.957-128.138-6.658-132.982
			c0.337-5.465,3.401-11.368,10.99-11.549l0.012,0.5l-0.012-0.5l455.332-10.876c3.648-0.1,6.547,0.884,8.618,2.885
			c2.8,2.706,3.054,6.304,3.064,7.343l6.59,134.942c0.011,0.974-0.414,1.895-1.261,2.759c-2.571,2.62-8.671,4.35-15.541,4.409
			c-73.075,0.621-441.111,3.989-457.717,4.603C374.246,591.753,374.196,591.753,374.146,591.753z M830.986,435.806
			c-0.139,0-0.279,0.001-0.421,0.005l-455.331,10.876c-8.699,0.207-9.866,8.173-10.016,10.609
			c-2.521,40.89-4.432,121.146,6.376,132.224c0.843,0.864,1.723,1.281,2.664,1.232c16.616-0.613,384.669-3.982,457.746-4.603
			c6.516-0.056,12.478-1.707,14.835-4.109c0.654-0.667,0.983-1.35,0.975-2.029l-6.59-134.942c-0.01-0.959-0.238-4.217-2.76-6.652
			C836.672,436.683,834.158,435.806,830.986,435.806z"/>
		<g>
			<path style="fill:#FFFFFF;" d="M414.503,574c-5.558,0-10.08-4.059-10.32-9.117l-2.696-56.804
				c-0.12-2.526,0.909-5.061,2.823-6.896c1.898-1.821,4.572-2.905,7.335-2.946l181.034-2.672c2.777-0.015,5.511,0.959,7.478,2.746
				c1.982,1.803,3.083,4.295,3.021,6.844l-1.403,57.548c-0.124,5.09-4.61,9.255-10.213,9.313L414.627,574
				C414.586,574,414.544,574,414.503,574z M592.843,497c-0.05,0-0.1,0-0.15,0l-181.034,2.442c-2.513,0.037-4.94,0.893-6.658,2.54
				c-1.705,1.635-2.622,3.801-2.516,6.038l2.696,56.842c0.215,4.521,4.3,8.136,9.322,8.136c0.038,0,0.075,0,0.113,0l176.935-1.985
				c5.062-0.053,9.113-3.724,9.224-8.271l1.403-57.583c0.055-2.258-0.927-4.269-2.694-5.876
				C597.738,497.698,595.325,497,592.843,497z"/>
			<path style="fill:#FFFFFF;" d="M393.439,471c-2.803,0-5.126-2.408-5.189-5.553c-0.065-3.261,2.184-5.821,5.009-5.883
				l228.056-4.966l0,0.016c2.162-0.03,4.274,0.758,5.773,2.195c1.339,1.285,2.097,2.976,2.132,4.755l0.002,0.122
				c0.035,1.777-0.654,3.489-1.943,4.818c-1.441,1.486-3.514,2.22-5.686,2.242L393.486,471C393.47,471,393.454,471,393.439,471z
				 M621.5,455.629c-0.054,0-0.108,0.001-0.163,0.002l-228.056,4.999c-2.276,0.05-4.085,2.087-4.034,4.704
				c0.054,2.696,1.929,4.667,4.191,4.667c0.013,0,0.025,0,0.038,0l228.108-2.253c1.907-0.02,3.721-0.708,4.978-2.004
				c1.101-1.135,1.691-2.559,1.661-4.07l-0.002-0.104c-0.03-1.51-0.678-2.939-1.824-4.039
				C625.126,456.312,623.349,455.629,621.5,455.629z"/>
			<path style="fill:#FFFFFF;" d="M624.964,512c-3.592,0-6.62-2.441-6.926-5.714l-0.309-3.261c-0.164-1.758,0.492-3.493,1.8-4.794
				c1.293-1.286,3.134-2.025,5.05-2.044l182.473-1.814c1.872,0.02,3.685,0.663,4.999,1.863l0,0c1.329,1.215,2.066,2.896,2.025,4.61
				l-0.038,1.574c-0.083,3.397-3.07,6.038-6.8,6.111L625.112,512C625.063,512,625.014,512,624.964,512z M807.127,495
				c-0.022,0-0.044,0-0.066,0l-182.473,2.008c-1.657,0.017-3.245,0.754-4.355,1.857c-1.095,1.09-1.645,2.599-1.509,4.058
				l0.309,3.323c0.262,2.799,2.939,5.005,6.059,4.897l182.126-3.54c3.194-0.063,5.75-2.349,5.82-5.21l0.038-1.571
				c0.035-1.426-0.584-3.016-1.7-4.035C810.262,495.769,808.716,495,807.127,495z"/>
			<path style="fill:#FFFFFF;" d="M624.417,535c-3.592,0-6.62-2.701-6.926-5.974l-0.309-3.391c-0.164-1.758,0.492-3.558,1.8-4.859
				c1.293-1.286,3.134-2.058,5.05-2.077l182.472-1.83c1.874,0.02,3.685,0.654,5,1.855l0,0c1.329,1.215,2.067,2.892,2.025,4.607
				l-0.038,1.571c-0.083,3.397-3.07,6.297-6.8,6.37L624.565,535C624.515,535,624.466,535,624.417,535z M806.579,518
				c-0.022,0-0.044,0-0.066,0l-182.472,1.748c-1.657,0.017-3.245,0.624-4.354,1.728c-1.095,1.09-1.646,2.534-1.509,3.993
				l0.309,3.291c0.261,2.8,2.954,4.934,6.059,4.88l182.125-3.548c3.194-0.063,5.75-2.353,5.82-5.214l0.038-1.573
				c0.035-1.426-0.585-2.757-1.7-3.777C809.714,518.51,808.169,518,806.579,518z"/>
			<path style="fill:#FFFFFF;" d="M623.868,557c-3.592,0-6.62-2.461-6.926-5.733l-0.309-3.271c-0.164-1.759,0.492-3.498,1.8-4.799
				c1.293-1.286,3.133-2.028,5.049-2.046l182.473-1.815c1.859,0.008,3.685,0.662,4.999,1.862c1.329,1.215,2.067,2.895,2.025,4.61
				l-0.039,1.574c-0.083,3.396-3.07,6.056-6.8,6.13L624.016,557C623.967,557,623.917,557,623.868,557z M806.031,540
				c-0.022,0-0.044,0-0.066,0l-182.473,1.988c-1.657,0.017-3.244,0.744-4.354,1.848c-1.095,1.089-1.645,2.593-1.509,4.053
				l0.309,3.321c0.261,2.8,2.952,4.958,6.058,4.895l182.126-3.541c3.193-0.063,5.749-2.349,5.819-5.21l0.039-1.572
				c0.035-1.425-0.585-2.995-1.7-4.015C809.166,540.749,807.621,540,806.031,540z"/>
		</g>
	</g>
	<g>
		
			<linearGradient id="SVGID_00000088129899198284678890000009265803254466962322_" gradientUnits="userSpaceOnUse" x1="177.753" y1="421.7209" x2="402.0285" y2="467.4681" gradientTransform="matrix(0.9364 0.013 -0.0112 0.8069 54.3474 -145.598)">
			<stop  offset="0" style="stop-color:#B37CFF"/>
			<stop  offset="1" style="stop-color:#F895E7"/>
		</linearGradient>
		<path style="opacity:0.6;fill:url(#SVGID_00000088129899198284678890000009265803254466962322_);" d="M237.841,209.727
			c-2.057-17.584,17.959-42.391,54.168-20.475c0.995-8.325,46.421-34.227,67.46,20.264c3.598-13.216,36.569-6.59,42.501,15.749
			c12.393-5.514,42.201,22.17,2.753,26.949c-50.378,6.103-165.799,4.336-186.494-25.893
			C197.533,196.092,237.841,209.727,237.841,209.727z"/>
		
			<linearGradient id="SVGID_00000058548579820491131310000016195433013386926510_" gradientUnits="userSpaceOnUse" x1="401.4858" y1="393.6686" x2="545.3492" y2="423.0135" gradientTransform="matrix(0.9364 0.013 -0.0112 0.8069 54.3474 -145.598)">
			<stop  offset="0" style="stop-color:#B37CFF"/>
			<stop  offset="1" style="stop-color:#F895E7"/>
		</linearGradient>
		<path style="opacity:0.6;fill:url(#SVGID_00000058548579820491131310000016195433013386926510_);" d="M439.853,185.437
			c-1.319-11.279,11.52-27.192,34.747-13.134c0.638-5.34,29.777-21.955,43.273,12.999c2.308-8.477,23.458-4.227,27.263,10.103
			c7.949-3.537,27.07,14.221,1.766,17.286c-32.315,3.915-106.353,2.782-119.628-16.609
			C413.998,176.691,439.853,185.437,439.853,185.437z"/>
	</g>
	<g>
		
			<linearGradient id="SVGID_00000091715298511483017480000016848017376856498599_" gradientUnits="userSpaceOnUse" x1="4257.6958" y1="-2114.5415" x2="4194.7422" y2="-2152.6953" gradientTransform="matrix(0.966 0.2584 -0.408 0.8335 -3970.0142 946.9056)">
			<stop  offset="0" style="stop-color:#53D8FF"/>
			<stop  offset="1" style="stop-color:#3840F7"/>
		</linearGradient>
		<polygon style="fill:url(#SVGID_00000091715298511483017480000016848017376856498599_);" points="977.494,245.114 
			971.641,258.086 965.372,248.545 		"/>
		
			<linearGradient id="SVGID_00000097484940967003903490000012337849545559765166_" gradientUnits="userSpaceOnUse" x1="4222.7559" y1="-2128.6477" x2="4150.7148" y2="-2204.822" gradientTransform="matrix(0.966 0.2584 -0.408 0.8335 -3970.0142 946.9056)">
			<stop  offset="0" style="stop-color:#53D8FF"/>
			<stop  offset="1" style="stop-color:#3840F7"/>
		</linearGradient>
		<path style="fill:url(#SVGID_00000097484940967003903490000012337849545559765166_);" d="M922.522,211.351l21.167,46.533
			c0.405,0.891,1.156,1.578,2.078,1.905s1.939,0.263,2.814-0.176l45.919-23.013c0.526-0.264,0.839-0.82,0.792-1.406
			c-0.047-0.586-0.445-1.085-1.006-1.262L922.522,211.351z"/>
		
			<linearGradient id="SVGID_00000057858270076977563890000007925085465128354722_" gradientUnits="userSpaceOnUse" x1="4253.0991" y1="-2115.1758" x2="4194.291" y2="-2150.8169" gradientTransform="matrix(0.966 0.2584 -0.408 0.8335 -3970.0142 946.9056)">
			<stop  offset="0" style="stop-color:#53D8FF"/>
			<stop  offset="1" style="stop-color:#3840F7"/>
		</linearGradient>
		<polygon style="fill:url(#SVGID_00000057858270076977563890000007925085465128354722_);" points="977.489,245.114 
			922.522,211.351 970.09,248.851 968.62,252.517 		"/>
		
			<linearGradient id="SVGID_00000130615396604310030900000015609702143541623443_" gradientUnits="userSpaceOnUse" x1="-6976.9634" y1="-1856.6598" x2="-6950.0903" y2="-1864.4431" gradientTransform="matrix(-0.966 -0.2584 -0.2584 0.966 -6238.2632 250.422)">
			<stop  offset="0" style="stop-color:#53D8FF"/>
			<stop  offset="1" style="stop-color:#3840F7"/>
		</linearGradient>
		<polygon style="fill:url(#SVGID_00000130615396604310030900000015609702143541623443_);" points="965.686,251.033 
			971.641,258.086 970.09,248.851 		"/>
	</g>
	
		<linearGradient id="SVGID_00000030482226858519272020000002783049270201934211_" gradientUnits="userSpaceOnUse" x1="206.9282" y1="375.89" x2="392.2544" y2="375.89">
		<stop  offset="0" style="stop-color:#9CFFFB"/>
		<stop  offset="1" style="stop-color:#9BFFFA"/>
	</linearGradient>
	<path style="fill:url(#SVGID_00000030482226858519272020000002783049270201934211_);" d="M228.218,449.108
		c-0.327,0-0.648-0.16-0.839-0.455c-0.921-1.417-1.824-2.847-2.682-4.251c-0.288-0.471-0.14-1.086,0.331-1.375
		c0.472-0.289,1.087-0.14,1.375,0.332c0.849,1.388,1.742,2.802,2.653,4.204c0.301,0.463,0.17,1.082-0.293,1.383
		C228.594,449.057,228.404,449.108,228.218,449.108z M223.004,440.579c-0.347,0-0.685-0.181-0.869-0.504
		c-0.84-1.469-1.657-2.952-2.428-4.408c-0.258-0.487-0.072-1.093,0.415-1.352c0.488-0.26,1.093-0.072,1.352,0.416
		c0.761,1.437,1.568,2.9,2.397,4.352c0.274,0.479,0.107,1.09-0.372,1.364C223.342,440.537,223.172,440.579,223.004,440.579z
		 M218.327,431.741c-0.371,0-0.727-0.207-0.9-0.563c-0.739-1.522-1.451-3.06-2.115-4.572c-0.222-0.506,0.008-1.096,0.513-1.318
		c0.506-0.219,1.096,0.008,1.318,0.514c0.654,1.489,1.355,3.004,2.083,4.502c0.241,0.497,0.034,1.096-0.462,1.337
		C218.623,431.709,218.474,431.741,218.327,431.741z M214.311,422.587c-0.4,0-0.778-0.241-0.932-0.637
		c-0.618-1.582-1.199-3.177-1.729-4.738c-0.177-0.523,0.103-1.091,0.626-1.269c0.525-0.178,1.091,0.105,1.268,0.626
		c0.52,1.534,1.091,3.1,1.698,4.654c0.201,0.514-0.053,1.094-0.568,1.295C214.555,422.565,214.432,422.587,214.311,422.587z
		 M211.109,413.118c-0.436,0-0.837-0.287-0.961-0.727c-0.466-1.642-0.887-3.289-1.25-4.897c-0.122-0.539,0.216-1.074,0.755-1.196
		c0.54-0.117,1.074,0.217,1.196,0.755c0.355,1.573,0.767,3.185,1.223,4.791c0.151,0.531-0.157,1.085-0.689,1.235
		C211.292,413.106,211.199,413.118,211.109,413.118z M208.915,403.369c-0.481,0-0.905-0.348-0.986-0.838
		c-0.275-1.682-0.497-3.371-0.659-5.022c-0.054-0.55,0.348-1.039,0.898-1.093c0.554-0.049,1.039,0.349,1.093,0.898
		c0.157,1.608,0.373,3.254,0.641,4.892c0.089,0.546-0.28,1.06-0.825,1.149C209.023,403.365,208.969,403.369,208.915,403.369z
		 M207.953,393c-0.54,0-0.984-0.218-0.999-0.761c-0.017-0.624-0.025-1.139-0.025-1.757c0-1.069,0.026-2.097,0.077-3.157
		c0.027-0.552,0.492-0.958,1.047-0.925c0.552,0.026,0.977,0.509,0.951,1.06c-0.05,1.028-0.075,2.083-0.074,3.121
		c0,0.601,0.008,0.996,0.024,1.6c0.015,0.553-0.42,0.819-0.972,0.819C207.971,393,207.962,393,207.953,393z M208.443,383.453
		c-0.042,0-0.086-0.003-0.129-0.008c-0.548-0.071-0.935-0.572-0.864-1.12c0.217-1.681,0.504-3.362,0.855-4.999
		c0.116-0.539,0.649-0.885,1.188-0.768c0.54,0.115,0.884,0.647,0.768,1.188c-0.34,1.582-0.618,3.209-0.828,4.835
		C209.368,383.085,208.938,383.453,208.443,383.453z M210.537,373.706c-0.097,0-0.195-0.014-0.293-0.044
		c-0.528-0.161-0.825-0.721-0.664-1.249c0.492-1.608,1.061-3.217,1.69-4.779c0.206-0.513,0.789-0.759,1.301-0.555
		c0.512,0.206,0.76,0.789,0.555,1.301c-0.608,1.511-1.157,3.064-1.633,4.619C211.361,373.43,210.965,373.706,210.537,373.706z
		 M214.26,364.453c-0.152,0-0.306-0.034-0.45-0.107c-0.493-0.249-0.691-0.851-0.442-1.344c0.754-1.492,1.586-2.982,2.472-4.427
		c0.289-0.471,0.905-0.617,1.375-0.33c0.471,0.289,0.618,0.904,0.33,1.375c-0.858,1.399-1.663,2.84-2.392,4.284
		C214.977,364.252,214.626,364.453,214.26,364.453z M219.467,355.951c-0.204,0-0.41-0.063-0.587-0.191
		c-0.446-0.324-0.545-0.95-0.221-1.396c0.978-1.346,2.03-2.686,3.128-3.982c0.356-0.423,0.987-0.477,1.409-0.118
		c0.422,0.356,0.474,0.988,0.118,1.409c-1.066,1.261-2.088,2.561-3.037,3.867C220.081,355.809,219.776,355.951,219.467,355.951z
		 M225.904,348.329c-0.251,0-0.503-0.094-0.697-0.282c-0.396-0.386-0.405-1.019-0.021-1.414c1.156-1.19,2.379-2.372,3.637-3.513
		c0.409-0.369,1.042-0.34,1.413,0.069c0.371,0.409,0.34,1.042-0.069,1.413c-1.227,1.112-2.419,2.264-3.546,3.423
		C226.425,348.228,226.165,348.329,225.904,348.329z M233.292,341.617c-0.292,0-0.581-0.127-0.779-0.372
		c-0.347-0.43-0.28-1.06,0.15-1.406c1.28-1.032,2.63-2.063,4.013-3.063c0.447-0.322,1.072-0.223,1.396,0.225
		c0.324,0.447,0.223,1.073-0.225,1.396c-1.354,0.979-2.676,1.987-3.928,2.998C233.734,341.545,233.512,341.617,233.292,341.617z
		 M241.381,335.761c-0.327,0-0.647-0.16-0.839-0.454c-0.302-0.462-0.171-1.082,0.292-1.384c1.373-0.896,2.815-1.789,4.285-2.655
		c0.476-0.28,1.089-0.122,1.369,0.353c0.281,0.476,0.122,1.089-0.354,1.369c-1.444,0.852-2.86,1.729-4.208,2.608
		C241.758,335.708,241.569,335.761,241.381,335.761z M249.982,330.681c-0.356,0-0.701-0.19-0.882-0.526
		c-0.261-0.487-0.079-1.093,0.408-1.354c1.443-0.775,2.95-1.548,4.48-2.298c0.496-0.242,1.095-0.037,1.338,0.459
		c0.243,0.495,0.038,1.095-0.458,1.338c-1.508,0.738-2.993,1.5-4.413,2.263C250.304,330.643,250.142,330.681,249.982,330.681z
		 M258.953,326.28c-0.382,0-0.747-0.22-0.913-0.591c-0.226-0.504-0.001-1.096,0.503-1.321c1.5-0.673,3.054-1.341,4.621-1.984
		c0.509-0.209,1.095,0.033,1.305,0.545c0.21,0.511-0.034,1.095-0.545,1.305c-1.547,0.636-3.082,1.295-4.563,1.959
		C259.229,326.252,259.09,326.28,258.953,326.28z M268.195,322.477c-0.404,0-0.784-0.246-0.936-0.646
		c-0.195-0.517,0.065-1.094,0.581-1.29c1.517-0.574,3.106-1.15,4.725-1.713c0.522-0.183,1.091,0.094,1.273,0.616
		c0.181,0.521-0.094,1.092-0.616,1.272c-1.601,0.557-3.174,1.127-4.673,1.695C268.432,322.456,268.312,322.477,268.195,322.477z
		 M277.634,319.191c-0.423,0-0.816-0.271-0.952-0.695c-0.168-0.526,0.122-1.089,0.648-1.257c1.573-0.504,3.174-0.995,4.8-1.475
		c0.53-0.157,1.086,0.148,1.242,0.676c0.156,0.53-0.147,1.086-0.676,1.242c-1.612,0.476-3.197,0.963-4.756,1.461
		C277.838,319.176,277.735,319.191,277.634,319.191z M287.222,316.361c-0.44,0-0.844-0.293-0.965-0.738
		c-0.145-0.532,0.17-1.082,0.703-1.226c1.595-0.434,3.214-0.856,4.857-1.266c0.536-0.135,1.079,0.19,1.213,0.728
		c0.134,0.535-0.192,1.078-0.728,1.212c-1.629,0.408-3.235,0.826-4.818,1.256C287.397,316.351,287.309,316.361,287.222,316.361z
		 M296.92,313.935c-0.455,0-0.867-0.313-0.973-0.775c-0.124-0.538,0.212-1.075,0.75-1.199c1.612-0.371,3.245-0.732,4.899-1.082
		c0.539-0.112,1.071,0.23,1.185,0.772c0.114,0.54-0.231,1.071-0.771,1.186c-1.643,0.348-3.264,0.705-4.864,1.074
		C297.07,313.927,296.994,313.935,296.92,313.935z M306.701,311.862c-0.469,0-0.888-0.332-0.981-0.81
		c-0.105-0.542,0.249-1.066,0.791-1.172c1.624-0.315,3.267-0.621,4.931-0.917c0.544-0.099,1.063,0.265,1.16,0.81
		c0.097,0.543-0.266,1.063-0.81,1.159c-1.652,0.294-3.286,0.598-4.899,0.911C306.828,311.856,306.764,311.862,306.701,311.862z
		 M316.543,310.11c-0.482,0-0.906-0.349-0.986-0.84c-0.089-0.545,0.282-1.059,0.827-1.148c1.633-0.265,3.284-0.521,4.954-0.77
		c0.544-0.071,1.055,0.297,1.136,0.843c0.081,0.546-0.296,1.055-0.842,1.136c-1.66,0.246-3.302,0.501-4.926,0.766
		C316.651,310.106,316.597,310.11,316.543,310.11z M326.434,308.643c-0.493,0-0.922-0.364-0.99-0.867
		c-0.073-0.547,0.311-1.051,0.858-1.124c1.64-0.22,3.297-0.433,4.971-0.637c0.547-0.072,1.047,0.324,1.114,0.872
		c0.067,0.549-0.324,1.047-0.872,1.114c-1.665,0.202-3.314,0.413-4.946,0.633C326.523,308.64,326.478,308.643,326.434,308.643z
		 M336.359,307.435c-0.504,0-0.937-0.379-0.993-0.892c-0.06-0.549,0.336-1.042,0.885-1.103c1.646-0.18,3.308-0.353,4.985-0.516
		c0.549-0.05,1.039,0.35,1.092,0.898c0.053,0.55-0.349,1.038-0.898,1.092c-1.669,0.163-3.323,0.334-4.961,0.514
		C336.432,307.433,336.396,307.435,336.359,307.435z M346.311,306.462c-0.513,0-0.95-0.393-0.995-0.913
		c-0.048-0.55,0.359-1.035,0.909-1.083c1.65-0.143,3.315-0.279,4.995-0.406c0.551-0.039,1.031,0.37,1.073,0.922
		c0.042,0.551-0.371,1.03-0.922,1.072c-1.672,0.127-3.329,0.261-4.972,0.404C346.369,306.461,346.34,306.462,346.311,306.462z
		 M356.281,305.703c-0.522,0-0.962-0.405-0.997-0.935c-0.036-0.551,0.381-1.027,0.932-1.063c1.653-0.108,3.32-0.21,5-0.304
		c0.555-0.022,1.023,0.392,1.054,0.942c0.031,0.552-0.391,1.023-0.943,1.054c-1.674,0.094-3.334,0.195-4.981,0.304
		C356.325,305.702,356.303,305.703,356.281,305.703z M366.265,305c-0.531,0-0.973-0.347-0.998-0.883
		c-0.025-0.552,0.401-0.984,0.953-1.009c1.655-0.076,3.323-0.129,5.003-0.192c0.543-0.046,1.016,0.418,1.037,0.97
		c0.021,0.552-0.41,0.95-0.962,0.971c-1.675,0.063-3.337,0.144-4.987,0.144C366.296,305,366.28,305,366.265,305z M376.257,305
		c-0.539,0-0.983-0.545-0.999-1.087c-0.016-0.553,0.418-1.071,0.971-1.088c1.656-0.048,3.325-0.118,5.006-0.153
		c0.557-0.01,1.009,0.412,1.021,0.965c0.011,0.552-0.427,1.118-0.979,1.13c-1.675,0.035-3.339,0.233-4.99,0.233
		C376.277,305,376.267,305,376.257,305z M386.254,305c-0.546,0-0.993-0.66-1-1.207c-0.007-0.552,0.435-0.873,0.987-0.88
		c1.658-0.022,3.327,0.088,5.008,0.088c0.002,0,0.003,0,0.005,0c0.55,0,0.997,0.202,1,0.752c0.003,0.552-0.442,1.101-0.995,1.104
		c-1.675,0.009-3.339,0.144-4.992,0.144C386.263,305,386.259,305,386.254,305z"/>
	
		<linearGradient id="SVGID_00000039125166794524268670000012715715885489155737_" gradientUnits="userSpaceOnUse" x1="777.8633" y1="320.2269" x2="988.1084" y2="320.2269">
		<stop  offset="0" style="stop-color:#9CFFFB"/>
		<stop  offset="1" style="stop-color:#9BFFFA"/>
	</linearGradient>
	<path style="fill:url(#SVGID_00000039125166794524268670000012715715885489155737_);" d="M875.197,373
		c-0.549,0-0.997-0.353-1-0.904c-0.004-0.552,0.441-0.957,0.994-0.961c1.686-0.011,3.347-0.011,4.984-0.045
		c0.569-0.004,1.009,0.439,1.021,0.991c0.011,0.552-0.427,0.924-0.979,0.936c-1.647,0.034-3.318-0.017-5.014-0.017
		C875.202,373,875.199,373,875.197,373z M870.198,373c-0.002,0-0.005,0-0.007,0c-1.648,0-3.318,0.055-5.011,0.023
		c-0.552-0.011-0.991-0.422-0.981-0.975c0.011-0.552,0.487-0.993,1.019-0.958c1.685,0.032,3.348,0.066,4.988,0.078
		c0.552,0.004,0.996,0.371,0.993,0.923C871.194,372.64,870.748,373,870.198,373z M860.201,373c-0.011,0-0.021,0-0.032,0
		c-1.649,0-3.318-0.122-5.007-0.193c-0.552-0.023-0.98-0.493-0.957-1.045c0.023-0.552,0.479-0.989,1.042-0.959
		c1.682,0.071,3.344,0.132,4.985,0.183c0.552,0.018,0.986,0.486,0.968,1.038C861.183,372.565,860.738,373,860.201,373z M885.193,373
		c-0.536,0-0.979-0.439-0.999-0.978c-0.019-0.553,0.412-1.022,0.964-1.042c1.686-0.061,3.344-0.137,4.977-0.222
		c0.54-0.044,1.022,0.393,1.05,0.946c0.029,0.552-0.395,1.035-0.947,1.064c-1.643,0.085-3.313,0.232-5.009,0.232
		C885.217,373,885.205,373,885.193,373z M850.211,373c-0.018,0-0.036,0-0.054,0c-1.648-1-3.315-0.404-5.002-0.51
		c-0.551-0.035-0.97-0.619-0.935-1.171c0.035-0.551,0.518-1.022,1.061-0.989c1.68,0.107,3.34,0.176,4.981,0.262
		c0.552,0.029,0.975,0.705,0.946,1.257C851.181,372.381,850.739,373,850.211,373z M895.173,372.45c-0.521,0-0.959-0.403-0.996-0.931
		c-0.039-0.551,0.377-1.028,0.928-1.066c1.684-0.118,3.338-0.249,4.963-0.393c0.566-0.051,1.036,0.358,1.084,0.908
		c0.049,0.55-0.358,1.035-0.908,1.084c-1.638,0.146-3.304,0.276-5.001,0.395C895.22,372.449,895.197,372.45,895.173,372.45z
		 M840.231,371.935c-0.025,0-0.049-0.001-0.073-0.003c-1.647-0.119-3.312-0.247-4.994-0.384c-0.551-0.045-0.961-0.527-0.916-1.078
		c0.045-0.551,0.524-0.957,1.078-0.916c1.676,0.137,3.335,0.265,4.976,0.384c0.551,0.04,0.965,0.518,0.925,1.069
		C841.19,371.534,840.75,371.935,840.231,371.935z M905.127,371.566c-0.503,0-0.936-0.379-0.993-0.892
		c-0.06-0.549,0.336-1.042,0.885-1.103c1.679-0.184,3.326-0.382,4.939-0.594c0.551-0.074,1.05,0.314,1.122,0.861
		c0.072,0.547-0.314,1.05-0.861,1.121c-1.628,0.214-3.289,0.414-4.982,0.6C905.201,371.565,905.164,371.566,905.127,371.566z
		 M830.265,371.124c-0.03,0-0.06-0.001-0.091-0.004c-1.646-0.148-3.307-0.306-4.986-0.471c-0.549-0.054-0.951-0.544-0.897-1.093
		c0.054-0.55,0.535-0.95,1.093-0.897c1.673,0.165,3.33,0.32,4.969,0.469c0.55,0.05,0.956,0.536,0.906,1.086
		C831.213,370.733,830.776,371.124,830.265,371.124z M915.035,370.26c-0.484,0-0.91-0.353-0.987-0.846
		c-0.085-0.546,0.289-1.058,0.834-1.143c1.67-0.26,3.303-0.537,4.9-0.829c0.547-0.102,1.064,0.261,1.164,0.804
		c0.099,0.543-0.261,1.064-0.804,1.163c-1.614,0.296-3.264,0.575-4.953,0.839C915.138,370.256,915.086,370.26,915.035,370.26z
		 M820.314,370.146c-0.036,0-0.071-0.002-0.108-0.006c-1.643-0.175-3.302-0.357-4.977-0.548c-0.549-0.061-0.943-0.557-0.881-1.105
		c0.061-0.549,0.556-0.952,1.107-0.881c1.669,0.188,3.324,0.371,4.963,0.546c0.549,0.059,0.947,0.551,0.888,1.1
		C821.252,369.765,820.818,370.146,820.314,370.146z M810.378,369.016c-0.041,0-0.081-0.002-0.122-0.007
		c-1.641-0.199-3.297-0.405-4.968-0.618c-0.548-0.07-0.936-0.571-0.866-1.119c0.07-0.549,0.575-0.923,1.119-0.865
		c1.667,0.213,3.318,0.419,4.955,0.616c0.548,0.066,0.939,0.564,0.872,1.113C811.308,368.644,810.877,369.016,810.378,369.016z
		 M924.863,368.457c-0.462,0-0.877-0.321-0.977-0.792c-0.115-0.54,0.229-1.071,0.77-1.187c1.647-0.351,3.274-0.724,4.838-1.108
		c0.539-0.138,1.078,0.195,1.21,0.732c0.132,0.536-0.196,1.078-0.732,1.21c-1.585,0.391-3.233,0.769-4.9,1.124
		C925.002,368.45,924.932,368.457,924.863,368.457z M800.459,367.746c-0.045,0-0.09-0.003-0.135-0.009
		c-1.639-0.221-3.292-0.449-4.959-0.684c-0.547-0.077-0.928-0.583-0.851-1.13c0.077-0.547,0.587-0.929,1.13-0.851
		c1.663,0.234,3.312,0.461,4.947,0.682c0.547,0.074,0.931,0.577,0.857,1.125C801.381,367.382,800.952,367.746,800.459,367.746z
		 M790.558,366.35c-0.049,0-0.098-0.003-0.147-0.011c-1.637-0.24-3.287-0.488-4.951-0.743c-0.546-0.084-0.92-0.594-0.837-1.14
		c0.083-0.547,0.598-0.92,1.14-0.837c1.66,0.254,3.306,0.501,4.939,0.741c0.546,0.08,0.924,0.588,0.844,1.135
		C791.473,365.992,791.045,366.35,790.558,366.35z M934.562,366.065c-0.436,0-0.837-0.287-0.961-0.728
		c-0.151-0.531,0.158-1.084,0.689-1.234c1.612-0.457,3.207-0.941,4.742-1.441c0.527-0.167,1.09,0.117,1.26,0.642
		c0.171,0.525-0.116,1.09-0.641,1.261c-1.559,0.507-3.18,0.999-4.816,1.463C934.744,366.054,934.652,366.065,934.562,366.065z
		 M780.672,364.837c-0.052,0-0.105-0.004-0.158-0.013l-1.809-0.289c-0.545-0.087-0.917-0.6-0.83-1.146
		c0.087-0.545,0.603-0.918,1.145-0.829l1.808,0.289c0.545,0.087,0.917,0.599,0.831,1.145
		C781.581,364.486,781.156,364.837,780.672,364.837z M944.057,362.969c-0.405,0-0.786-0.248-0.936-0.65
		c-0.194-0.518,0.069-1.094,0.586-1.287c1.573-0.589,3.118-1.207,4.591-1.84c0.509-0.221,1.096,0.017,1.313,0.524
		c0.218,0.508-0.017,1.096-0.524,1.314c-1.503,0.645-3.077,1.275-4.679,1.875C944.292,362.948,944.173,362.969,944.057,362.969z
		 M953.228,359.023c-0.369,0-0.724-0.204-0.898-0.558c-0.244-0.495-0.04-1.095,0.455-1.339c1.494-0.737,2.96-1.515,4.358-2.312
		c0.481-0.274,1.091-0.104,1.364,0.374c0.273,0.479,0.107,1.091-0.373,1.364c-1.433,0.816-2.935,1.612-4.463,2.366
		C953.527,358.99,953.377,359.023,953.228,359.023z M961.893,354.073c-0.325,0-0.643-0.157-0.835-0.449
		c-0.304-0.461-0.178-1.081,0.283-1.385c1.383-0.914,2.73-1.875,4.001-2.857c0.436-0.337,1.065-0.257,1.403,0.18
		c0.337,0.436,0.257,1.066-0.18,1.402c-1.311,1.013-2.697,2.003-4.121,2.943C962.273,354.02,962.081,354.073,961.893,354.073z
		 M969.778,347.968c-0.272,0-0.543-0.11-0.74-0.326c-0.372-0.408-0.342-1.041,0.066-1.413c1.221-1.113,2.392-2.275,3.479-3.455
		c0.375-0.405,1.007-0.43,1.413-0.058c0.406,0.374,0.432,1.007,0.058,1.413c-1.127,1.223-2.338,2.426-3.603,3.578
		C970.26,347.882,970.019,347.968,969.778,347.968z M976.525,340.628c-0.211,0-0.424-0.066-0.605-0.204
		c-0.439-0.335-0.524-0.963-0.189-1.402c0.99-1.299,1.922-2.655,2.77-4.031c0.29-0.469,0.906-0.615,1.376-0.326
		c0.47,0.29,0.616,0.906,0.326,1.377c-0.883,1.431-1.852,2.842-2.882,4.193C977.125,340.492,976.827,340.628,976.525,340.628z
		 M981.757,332.143c-0.147,0-0.296-0.032-0.437-0.101c-0.497-0.242-0.703-0.841-0.461-1.337c0.709-1.457,1.356-2.972,1.921-4.501
		c0.192-0.518,0.767-0.785,1.285-0.591c0.518,0.191,0.783,0.767,0.591,1.284c-0.588,1.591-1.261,3.167-1.999,4.683
		C982.483,331.935,982.127,332.143,981.757,332.143z M985.222,322.786c-0.084,0-0.17-0.011-0.255-0.033
		c-0.534-0.141-0.853-0.688-0.712-1.222c0.412-1.563,0.759-3.176,1.033-4.795c0.092-0.545,0.603-0.906,1.152-0.82
		c0.544,0.092,0.912,0.608,0.819,1.152c-0.283,1.68-0.644,3.353-1.071,4.973C986.07,322.489,985.665,322.786,985.222,322.786z
		 M986.894,312.943c-0.028,0-0.056-0.001-0.083-0.003c-0.55-0.046-0.959-0.529-0.914-1.08c0.133-1.601,0.204-3.23,0.212-4.891
		c0.002-0.551,0.45-0.969,1-0.969c0.002,0,0.003,0,0.005,0c0.552,0,0.997,0.426,0.995,0.979c-0.008,1.713-0.081,3.407-0.219,5.06
		C987.846,312.561,987.409,312.943,986.894,312.943z M986.949,302.951c-0.522,0-0.961-0.405-0.997-0.934
		c-0.107-1.605-0.273-3.258-0.493-4.91c-0.073-0.548,0.312-1.051,0.859-1.123c0.552-0.07,1.05,0.311,1.123,0.859
		c0.226,1.695,0.396,3.392,0.505,5.041c0.037,0.551-0.38,1.027-0.931,1.064C986.994,302.95,986.971,302.951,986.949,302.951z
		 M985.64,293.04c-0.469,0-0.888-0.331-0.98-0.809c-0.31-1.592-0.674-3.215-1.082-4.826c-0.136-0.535,0.188-1.08,0.724-1.216
		c0.534-0.133,1.08,0.189,1.215,0.724c0.418,1.647,0.791,3.309,1.107,4.936c0.105,0.543-0.248,1.067-0.791,1.173
		C985.767,293.034,985.703,293.04,985.64,293.04z M983.188,283.345c-0.426,0-0.821-0.274-0.955-0.703
		c-0.488-1.571-1.022-3.149-1.589-4.691c-0.191-0.518,0.075-1.093,0.593-1.283c0.518-0.189,1.093,0.075,1.284,0.593
		c0.579,1.573,1.125,3.185,1.622,4.788c0.164,0.527-0.131,1.088-0.659,1.252C983.387,283.33,983.287,283.345,983.188,283.345z
		 M979.733,273.955c-0.388,0-0.756-0.227-0.919-0.605c-1.205-2.801-2.087-4.438-2.095-4.453c-0.263-0.486-0.082-1.093,0.403-1.355
		c0.486-0.264,1.092-0.083,1.355,0.402c0.037,0.069,0.93,1.724,2.173,4.615c0.218,0.508-0.016,1.096-0.523,1.314
		C979.998,273.929,979.865,273.955,979.733,273.955z"/>
	<g>
		
			<linearGradient id="SVGID_00000183955901439537347420000017414107287793700511_" gradientUnits="userSpaceOnUse" x1="649.9816" y1="396.438" x2="627.2404" y2="466.1447">
			<stop  offset="0" style="stop-color:#F9B776"/>
			<stop  offset="1" style="stop-color:#F47960"/>
		</linearGradient>
		<path style="fill:url(#SVGID_00000183955901439537347420000017414107287793700511_);" d="M627.84,401.593
			c0,0-31.637,40.506,4.459,81.704l13.57-1.264c0,0-26.123-41.945-14.488-75.38l19.223,1.403l10.63-6.929L627.84,401.593z"/>
		
			<linearGradient id="SVGID_00000120536938245690543350000012977759324015129744_" gradientUnits="userSpaceOnUse" x1="645.1672" y1="644.1435" x2="693.0844" y2="644.1435">
			<stop  offset="0" style="stop-color:#F9B776"/>
			<stop  offset="1" style="stop-color:#F47960"/>
		</linearGradient>
		<path style="fill:url(#SVGID_00000120536938245690543350000012977759324015129744_);" d="M645.167,599.909
			c0,0,25.633,55.867,39.082,79.008c0,0,2.671,14.56,0,19.139l-2.276,1.012l10.624-0.316c0,0,0.944-19.585,0.207-20.679
			c-0.737-1.094-2.211-1.022-2.211-1.022s-4.555-36.091-17.748-43.793l-12.785-44.037L645.167,599.909z"/>
		
			<linearGradient id="SVGID_00000115500677992681751490000010865018536715221640_" gradientUnits="userSpaceOnUse" x1="711.0306" y1="536.9863" x2="687.3006" y2="691.2307">
			<stop  offset="0" style="stop-color:#CB236D"/>
			<stop  offset="1" style="stop-color:#4C246D"/>
		</linearGradient>
		<path style="fill:url(#SVGID_00000115500677992681751490000010865018536715221640_);" d="M677.435,701.81
			c-0.016,0.256,8.296,0.139,12.811,0.057c1.667-0.03,3.088-1.202,3.444-2.831l3.41-17.913c0.324-1.702-0.757-3.356-2.446-3.742
			l-1.903-0.435c0,0-2.715,3.724-1.86,7.231c0.855,3.506,1.615,12.59-0.545,13.648c-2.16,1.058-8.372,1.243-8.372,1.243
			S677.577,699.503,677.435,701.81z"/>
		
			<linearGradient id="SVGID_00000004531825936222004090000016078129621837618306_" gradientUnits="userSpaceOnUse" x1="660.8204" y1="529.2618" x2="637.0903" y2="683.5067">
			<stop  offset="0" style="stop-color:#CB236D"/>
			<stop  offset="1" style="stop-color:#4C246D"/>
		</linearGradient>
		<path style="fill:url(#SVGID_00000004531825936222004090000016078129621837618306_);" d="M620.872,702.135
			c-0.841,0.479-0.494,1.763,0.473,1.753c7.556-0.076,24.486-0.315,25.991-0.941c1.942-0.808-0.708-7.787-3.497-10.15l-15.4,5.026
			L620.872,702.135z"/>
		
			<linearGradient id="SVGID_00000041280766178660547660000005149298212485800106_" gradientUnits="userSpaceOnUse" x1="616.0914" y1="647.7064" x2="643.8392" y2="647.7064">
			<stop  offset="0" style="stop-color:#F9B776"/>
			<stop  offset="1" style="stop-color:#F47960"/>
		</linearGradient>
		<path style="fill:url(#SVGID_00000041280766178660547660000005149298212485800106_);" d="M616.091,596.346
			c0,0,16.565,80.133,21.25,95.765l-11.085,6.956c0,0,5.555-0.945,9.674-1.243c4.119-0.299,7.908-5.026,7.908-5.026l-1.328-2.118
			c0,0-4.154-79.697-3.143-88.747L616.091,596.346z"/>
		
			<linearGradient id="SVGID_00000093855463281070735790000002950021012540331411_" gradientUnits="userSpaceOnUse" x1="556.3176" y1="439.5244" x2="610.639" y2="439.5244">
			<stop  offset="0" style="stop-color:#F9B776"/>
			<stop  offset="1" style="stop-color:#F47960"/>
		</linearGradient>
		<path style="fill:url(#SVGID_00000093855463281070735790000002950021012540331411_);" d="M574.972,409.434
			c0,0-2.285,41.685,35.667,62.986l-9.137,20.839c0,0-34.36-20.783-33.089-77.465c0.036-1.627-0.55-3.206-1.613-4.439l-7.303-8.472
			c-2.782-3.228-3.822-7.606-2.788-11.74l0.961-3.842c0.322-1.286,1.787-1.905,2.933-1.239l0.764,0.444
			c2.431,1.412,4.357,3.552,5.505,6.119l3.586,8.016c1.339,2.994,4.428,4.812,7.695,4.53l2.217-0.191L574.972,409.434z"/>
		
			<linearGradient id="SVGID_00000155850872635401097660000001156300186692799914_" gradientUnits="userSpaceOnUse" x1="614.1428" y1="469.9691" x2="715.9836" y2="671.6733">
			<stop  offset="0" style="stop-color:#102792"/>
			<stop  offset="0.9964" style="stop-color:#3EA7C4"/>
		</linearGradient>
		<path style="fill:url(#SVGID_00000155850872635401097660000001156300186692799914_);" d="M647.471,479.345
			c-1.413-1.894-3.547-3.119-5.895-3.384c-12.52-1.415-27.11-5.267-32.149-6.665c-1.026-0.285-2.089,0.285-2.43,1.294l-6.546,20.028
			c-0.51,1.56,0.082,3.269,1.449,4.179l1.343,0.894c-0.977,2.902-2.26,5.92-0.536,8.451c5.97,8.762,13.538,26.336,13.538,26.336
			l26.882,0.12l-0.656-7.589l6.566-37.051C649.448,483.633,648.884,481.24,647.471,479.345z"/>
		
			<linearGradient id="SVGID_00000027579182302734358370000002225780435577033367_" gradientUnits="userSpaceOnUse" x1="591.5928" y1="522.3535" x2="680.58" y2="622.7114">
			<stop  offset="0" style="stop-color:#53D8FF"/>
			<stop  offset="1" style="stop-color:#3840F7"/>
		</linearGradient>
		<path style="fill:url(#SVGID_00000027579182302734358370000002225780435577033367_);" d="M613.982,526.508l0.529,4.597
			c0,0-7.597,22.75,3.799,75.886c0,0,24.679,6.991,44.962-9.738c0,0-5.722-50.152-7.284-52.488
			c-7.784-11.636-12.97-14.165-12.97-14.165l-0.234-5.023C642.783,525.577,621.089,529.499,613.982,526.508z"/>
		
			<linearGradient id="SVGID_00000075846626268902461670000010328583720943284923_" gradientUnits="userSpaceOnUse" x1="624.5034" y1="466.1937" x2="641.4834" y2="466.1937">
			<stop  offset="0" style="stop-color:#F9B776"/>
			<stop  offset="1" style="stop-color:#F47960"/>
		</linearGradient>
		<path style="fill:url(#SVGID_00000075846626268902461670000010328583720943284923_);" d="M624.505,473.046
			c-0.094-0.125,5.612-17.228,5.612-17.228l8.174,0.742l3.193,19.403C641.483,475.963,628.673,478.548,624.505,473.046z"/>
		<g>
			
				<linearGradient id="SVGID_00000073718043275559727500000009302912570012942239_" gradientUnits="userSpaceOnUse" x1="4510.6021" y1="-2612.1184" x2="4547.9888" y2="-2586.7236" gradientTransform="matrix(0.92 0.3919 -0.3919 0.92 -4548.0342 1073.1838)">
				<stop  offset="0" style="stop-color:#F9B776"/>
				<stop  offset="1" style="stop-color:#F47960"/>
			</linearGradient>
			<path style="fill:url(#SVGID_00000073718043275559727500000009302912570012942239_);" d="M640.353,434.152
				c0,0-8.357-0.026-17.533,8.158c-9.176,8.184-7.592,14.442-3.351,17.015c4.241,2.573,11.039,5.352,21.002,1.784
				C650.434,457.54,651.071,434.528,640.353,434.152z"/>
			
				<linearGradient id="SVGID_00000129201779055432773250000012708464710312517560_" gradientUnits="userSpaceOnUse" x1="4575.8491" y1="-2659.825" x2="4513.1426" y2="-2594.585" gradientTransform="matrix(0.92 0.3919 -0.3919 0.92 -4548.0342 1073.1838)">
				<stop  offset="0" style="stop-color:#CB236D"/>
				<stop  offset="1" style="stop-color:#4C246D"/>
			</linearGradient>
			<path style="fill:url(#SVGID_00000129201779055432773250000012708464710312517560_);" d="M637.995,453.598
				c0,0,11.722-12.698-1.479-18.53l-4.054,0.853c0,0-1.335-10.377,8.348-10.935c9.683-0.558,20.111,8.052,18.925,20.273
				c-1.186,12.221-6.14,18.328-13.995,21.071c-7.856,2.743-7.7-4.095-7.7-4.095s5.136-3.507,4.979-6.621
				c-0.156-3.113-4.376-1.234-4.376-1.234L637.995,453.598z"/>
			
				<linearGradient id="SVGID_00000139989670197744813570000007410408627255043970_" gradientUnits="userSpaceOnUse" x1="4512.8433" y1="-2615.418" x2="4550.23" y2="-2590.0232" gradientTransform="matrix(0.92 0.3919 -0.3919 0.92 -4548.0342 1073.1838)">
				<stop  offset="0" style="stop-color:#F9B776"/>
				<stop  offset="1" style="stop-color:#F47960"/>
			</linearGradient>
			<path style="fill:url(#SVGID_00000139989670197744813570000007410408627255043970_);" d="M638.774,455.9
				c0,0,5.987-6.563,8.283-1.956c2.296,4.607-5.965,5.878-9.082,6.101L638.774,455.9z"/>
			
				<linearGradient id="SVGID_00000006698629363991319950000007029721978393565082_" gradientUnits="userSpaceOnUse" x1="4300.9424" y1="-2767.3232" x2="4232.3687" y2="-2695.9788" gradientTransform="matrix(0.8821 0.471 -0.471 0.8821 -4375.1987 882.0632)">
				<stop  offset="0" style="stop-color:#CB236D"/>
				<stop  offset="1" style="stop-color:#4C246D"/>
			</linearGradient>
			<path style="fill:url(#SVGID_00000006698629363991319950000007029721978393565082_);" d="M656.107,451.634
				c-0.814-2.784,1.998-5.252,4.737-4.296c8.84,3.084,20.59,11.026,16.489,31.286c-4.619,22.822-6.04,34.707-3.029,38.533
				c1.977,2.513,0.229,6.187-2.961,5.968c-2.359-0.161-5.244-1.313-8.685-4.252C636.118,496.202,660.88,467.965,656.107,451.634z"/>
		</g>
		<g>
			
				<linearGradient id="SVGID_00000106110396816123809160000009754963933820103079_" gradientUnits="userSpaceOnUse" x1="-1393.5981" y1="455.7037" x2="-1553.2083" y2="781.4193" gradientTransform="matrix(2.0673 -0.0408 -0.0408 1.1532 3565.8076 -319.4515)">
				<stop  offset="0" style="stop-color:#FDF53F"/>
				<stop  offset="1" style="stop-color:#D93C65"/>
			</linearGradient>
			<path style="fill:url(#SVGID_00000106110396816123809160000009754963933820103079_);" d="M426.192,303.069l310.872-15.073
				c6.096-0.296,7.709,4.51,7.793,7.187l6.75,101.911c0.085,2.695-4.89,5.074-11.029,5.267
				c-56.25,1.769-301.607,9.675-312.616,10.368c-10.879,0.685-9.461-80.303-8.76-101.129
				C419.289,309.026,420.343,303.353,426.192,303.069z"/>
			<path style="fill:#FFFFFF;" d="M429.255,409.753l-0.147-0.281c-4.3-8.262-5.763-42.553-3.726-87.359
				c0.031-0.674,0.935-0.955,1.7-0.991l310.879-14.912c0.415-0.024,0.785,0.023,1.092,0.126c0.584,0.194,0.714,0.534,0.721,0.785
				l2.69,90.997c0.02,0.668-0.836,1.007-1.694,1.046l-0.05,0.002c-44.741,1.483-270.011,8.965-311.148,10.576L429.255,409.753z
				 M426.375,322.283c-1.998,44.086-0.632,77.855,3.48,86.445c41.973-1.637,266.204-9.084,310.831-10.563l0.049-0.001
				c0.358-0.017,0.608-0.099,0.724-0.159l-2.681-90.706c-0.013-0.005-0.027-0.011-0.043-0.016c-0.131-0.044-0.364-0.089-0.728-0.076
				L427.13,322.119C426.747,322.138,426.488,322.224,426.375,322.283z"/>
			<g>
				<path style="fill:#FFFFFF;" d="M580.736,339.365c-1.316-1.267-3.194-1.943-5.019-1.873l-123.678,4.738
					c-1.812,0.069-3.544,0.868-4.759,2.215c-1.214,1.346-1.846,3.127-1.728,4.936l2.78,42.844c0.236,3.622,3.301,6.402,6.928,6.28
					l121.043-4.063c3.621-0.121,6.697-3.093,6.697-6.716v-43.52C583,342.38,582.052,340.632,580.736,339.365z"/>
				<path style="fill:#FFFFFF;" d="M599.366,321.144l-155.71,7.211c-1.748,0.081-3.088,1.92-3.001,4.108l0.003,0.071
					c0.087,2.188,1.569,3.914,3.319,3.855l155.789-5.235c2.732-0.092,4.872-2.401,4.762-5.158l-0.004-0.089
					C604.414,323.149,602.097,321.018,599.366,321.144z"/>
				<path style="fill:#FFFFFF;" d="M725.453,334.612c-0.858-0.83-2.119-1.277-3.313-1.237l-124.674,4.121
					c-1.224,0.04-2.402,0.589-3.206,1.513c-0.804,0.924-1.199,2.142-1.069,3.36l0.26,2.489c0.247,2.314,2.247,4.037,4.571,3.936
					l124.56-5.421c2.357-0.103,4.418-2.044,4.418-4.404v-1.189C727,336.586,726.311,335.443,725.453,334.612z"/>
				<path style="fill:#FFFFFF;" d="M725.453,351.612c-0.858-0.83-2.119-1.277-3.313-1.237l-124.674,4.121
					c-1.224,0.04-2.402,0.589-3.206,1.513c-0.804,0.924-1.199,2.142-1.069,3.36l0.26,2.489c0.247,2.314,2.247,4.037,4.571,3.936
					l124.56-5.421c2.357-0.103,4.418-2.044,4.418-4.404v-1.189C727,353.586,726.311,352.443,725.453,351.612z"/>
				<path style="fill:#FFFFFF;" d="M725.453,368.612c-0.858-0.83-2.119-1.277-3.313-1.237l-124.674,4.121
					c-1.224,0.04-2.402,0.589-3.206,1.513c-0.804,0.924-1.199,2.142-1.069,3.36l0.26,2.489c0.247,2.314,2.247,4.037,4.571,3.936
					l124.56-5.421c2.357-0.103,4.418-2.044,4.418-4.404v-1.189C727,370.586,726.311,369.443,725.453,368.612z"/>
			</g>
			<g>
				<path style="fill:#FFFFFF;" d="M696.6,298.644c0.103,3.272-2.465,6.008-5.737,6.111l-4.144,0.131
					c-3.272,0.103-6.008-2.465-6.111-5.737l-0.005-0.146c-0.103-3.272,2.465-6.008,5.737-6.111l4.144-0.131
					c3.272-0.103,6.008,2.465,6.111,5.737L696.6,298.644z"/>
				<path style="fill:#FFFFFF;" d="M715.59,298.045c0.103,3.272-2.465,6.008-5.737,6.111l-4.144,0.131
					c-3.272,0.103-6.008-2.466-6.111-5.737l-0.005-0.146c-0.103-3.272,2.465-6.008,5.737-6.111l4.144-0.131
					c3.272-0.103,6.008,2.465,6.111,5.737L715.59,298.045z"/>
				<path style="fill:#FFFFFF;" d="M734.581,297.446c0.103,3.272-2.465,6.008-5.737,6.111l-4.144,0.131
					c-3.272,0.103-6.008-2.465-6.111-5.737l-0.005-0.146c-0.103-3.272,2.465-6.008,5.737-6.111l4.144-0.131
					c3.272-0.103,6.008,2.466,6.111,5.737L734.581,297.446z"/>
			</g>
		</g>
	</g>
	<g>
		<g>
			
				<linearGradient id="SVGID_00000129190083763336756170000014745389264487624124_" gradientUnits="userSpaceOnUse" x1="399.4276" y1="993.7374" x2="314.1342" y2="1082.4088" gradientTransform="matrix(0.9919 -0.1267 0.1267 0.9919 -215.3351 -441.4702)">
				<stop  offset="0" style="stop-color:#FDF53F"/>
				<stop  offset="1" style="stop-color:#D93C65"/>
			</linearGradient>
			<path style="fill:url(#SVGID_00000129190083763336756170000014745389264487624124_);" d="M304.54,641.018
				c0,0-48.178,53.115-88.414,30.667c-32.338-18.041,13.605-13.327,52.576-21.852c3.058-0.669,2.258-5.24-0.846-4.829
				c-30.491,4.043-77.016,7.347-85.097-8.552c-12.199-24.001-0.369-16.217,36.759-12.75c37.128,3.467,44.282-5.701,20.047-11.411
				c-24.235-5.71-62.789,6.92-71.77-4.824c-8.981-11.744-13.89-35.055-17.47-45.081c-3.58-10.026,46.216-25.069,59.679-11.907
				c13.462,13.161,24.395,42.538,40.371,47.901c15.976,5.364-1.209-20.622-11.805-34.035c-10.596-13.413-14.796-23.381,6.373-20.182
				c21.169,3.199,32.36,29.036,34.591,48.321c2.232,19.286,9.688,30.072,9.35,20.531c-0.338-9.541-3.8-38.801-10.566-47.598
				C271.551,556.62,319.852,567.355,304.54,641.018z"/>
			<path style="opacity:0.53;fill:#FFFFFF;" d="M300.619,641.524c-0.212,0.081-0.46,0.045-0.643-0.116
				c-41.353-36.177-110.71-62.473-111.405-62.734c-0.328-0.123-0.493-0.488-0.37-0.816c0.123-0.326,0.488-0.492,0.816-0.37
				c0.698,0.262,70.266,26.635,111.794,62.967c0.263,0.23,0.29,0.63,0.06,0.893C300.799,641.43,300.712,641.489,300.619,641.524z"/>
		</g>
		<g>
			
				<linearGradient id="SVGID_00000105420543291213169630000010385453560880191389_" gradientUnits="userSpaceOnUse" x1="314.8581" y1="1173.9586" x2="520.1272" y2="913.7441" gradientTransform="matrix(0.9919 -0.1267 0.1267 0.9919 -215.3351 -441.4702)">
				<stop  offset="0" style="stop-color:#CB236D"/>
				<stop  offset="1" style="stop-color:#4C246D"/>
			</linearGradient>
			<path style="fill:url(#SVGID_00000105420543291213169630000010385453560880191389_);" d="M333.626,674.941
				c0,0-87.985,2.903-102.569-51.747c-11.721-43.922,23.372,0.609,64.18,27.683c3.202,2.125,6.548-2.487,3.534-4.871
				c-29.612-23.427-72.272-61.621-65.16-82.327c10.737-31.258,13.982-14.179,42.644,21.514
				c28.662,35.694,42.856,34.168,27.186,7.925c-15.67-26.244-59.741-49.443-57.06-67.393c2.681-17.95,19.038-42.193,24.819-53.914
				c5.78-11.721,61.583,19.328,61.481,42.44c-0.102,23.112-16.66,57.846-7.74,76.513c8.92,18.667,17.147-18.684,19.92-39.484
				c2.773-20.8,7.972-33.019,23.237-11.623c15.265,21.396,2.047,53.333-13.048,71.776c-15.096,18.443-18.236,34.232-10.112,25.783
				c8.123-8.449,30.961-36.498,32.936-49.979C379.849,573.757,411.648,625.51,333.626,674.941z"/>
			<path style="opacity:0.53;fill:#FFFFFF;" d="M329.83,671.917c-0.252-0.118-0.433-0.367-0.447-0.665
				c-3.434-67.363-39.504-150.972-39.868-151.808c-0.172-0.394,0.009-0.851,0.403-1.024c0.392-0.17,0.851,0.01,1.023,0.403
				c0.366,0.839,36.547,84.701,39.995,152.351c0.022,0.428-0.308,0.793-0.737,0.815C330.066,671.996,329.941,671.969,329.83,671.917
				z"/>
		</g>
	</g>
	<g>
		
			<linearGradient id="SVGID_00000055709093739383238770000011109824118266984601_" gradientUnits="userSpaceOnUse" x1="859.4253" y1="54.1637" x2="410.425" y2="249.1635">
			<stop  offset="0" style="stop-color:#FDF53F"/>
			<stop  offset="1" style="stop-color:#D93C65"/>
		</linearGradient>
		<path style="fill:url(#SVGID_00000055709093739383238770000011109824118266984601_);" d="M777.279,98.776
			c-1.741-1.706-4.095-2.641-6.532-2.593l-168.853,3.339c-4.94,0.098-8.894,4.13-8.894,9.072v21.987
			c0,4.984,4.021,9.036,9.005,9.073l144.198,1.091c5.991,4.091,19.501,14.188,25.07,18.367c0.355,0.267,0.84,0.276,1.206,0.024
			c0.365-0.252,0.529-0.709,0.406-1.136l-4.941-17.091l2.915,0.022c2.418,0.018,4.744-0.93,6.46-2.633
			c1.717-1.704,2.682-4.022,2.682-6.44v-26.603C780,102.817,779.019,100.482,777.279,98.776z"/>
		<path style="fill:#FFFFFF;" d="M721,112c0,0.552-0.448,1-1,1H602c-0.552,0-1-0.448-1-1l0,0c0-0.552,0.448-1,1-1h118
			C720.552,111,721,111.448,721,112L721,112z"/>
		<path style="fill:#FFFFFF;" d="M769,128c0,0.552-0.448,1-1,1H650c-0.552,0-1-0.448-1-1l0,0c0-0.552,0.448-1,1-1h118
			C768.552,127,769,127.448,769,128L769,128z"/>
		<path style="fill:#FFFFFF;" d="M770,112c0,0.552-0.448,1-1,1h-38c-0.552,0-1-0.448-1-1l0,0c0-0.552,0.448-1,1-1h38
			C769.552,111,770,111.448,770,112L770,112z"/>
		<path style="fill:#FFFFFF;" d="M739,120c0,0.552-0.448,1-1,1h-38c-0.552,0-1-0.448-1-1l0,0c0-0.552,0.448-1,1-1h38
			C738.552,119,739,119.448,739,120L739,120z"/>
		<path style="fill:#FFFFFF;" d="M690,120c0,0.552-0.448,1-1,1h-87c-0.552,0-1-0.448-1-1l0,0c0-0.552,0.448-1,1-1h87
			C689.552,119,690,119.448,690,120L690,120z"/>
		<path style="fill:#FFFFFF;" d="M770,120c0,0.552-0.448,1-1,1h-23c-0.552,0-1-0.448-1-1l0,0c0-0.552,0.448-1,1-1h23
			C769.552,119,770,119.448,770,120L770,120z"/>
		<path style="fill:#FFFFFF;" d="M625,129c0,0.552-0.448,1-1,1h-23c-0.552,0-1-0.448-1-1l0,0c0-0.552,0.448-1,1-1h23
			C624.552,128,625,128.448,625,129L625,129z"/>
	</g>
</g>
</svg>
